<svg xmlns="http://www.w3.org/2000/svg" width="1459" height="401" preserveAspectRatio="none" style="display: block;" version="1.1" viewBox="0 0 2048 563"><defs><linearGradient id="e" x1="1979.26" x2="1895.28" y1="488.139" y2="405.427" gradientUnits="userSpaceOnUse"><stop class="stop0" offset="0" stop-color="rgb(0,165,255)" stop-opacity="1"/><stop class="stop1" offset="1" stop-color="rgb(7,189,255)" stop-opacity="1"/></linearGradient><linearGradient id="d" x1="951.976" x2="1045.85" y1="168.257" y2="167.647" gradientUnits="userSpaceOnUse"><stop class="stop0" offset="0" stop-color="rgb(255,188,3)" stop-opacity="1"/><stop class="stop1" offset="1" stop-color="rgb(255,220,4)" stop-opacity="1"/></linearGradient><linearGradient id="c" x1="1675.76" x2="1587.44" y1="305.693" y2="278.246" gradientUnits="userSpaceOnUse"><stop class="stop0" offset="0" stop-color="rgb(2,71,225)" stop-opacity="1"/><stop class="stop1" offset="1" stop-color="rgb(20,102,232)" stop-opacity="1"/></linearGradient><linearGradient id="b" x1="1797.6" x2="1703.06" y1="357.137" y2="477.674" gradientUnits="userSpaceOnUse"><stop class="stop0" offset="0" stop-color="rgb(1,101,255)" stop-opacity="1"/><stop class="stop1" offset="1" stop-color="rgb(1,132,255)" stop-opacity="1"/></linearGradient><linearGradient id="a" x1="1627.31" x2="1668.83" y1="455.844" y2="491.393" gradientUnits="userSpaceOnUse"><stop class="stop0" offset="0" stop-color="rgb(0,136,255)" stop-opacity="1"/><stop class="stop1" offset="1" stop-color="rgb(0,252,255)" stop-opacity="1"/></linearGradient></defs><path fill="rgb(3,121,254)" d="M1611.67 188.066C1634.86 187.9 1658.06 187.945 1681.26 188.2C1705.12 188.004 1740.74 186.986 1763.84 188.292C1769.71 191.696 1806.06 222.367 1811.67 227.601L1813.23 229.542C1813.3 238.757 1814.98 309.488 1811.74 312.194C1809.12 316.052 1791.93 339.748 1789.49 341.894C1792.06 347.397 1806.94 360.486 1811.84 364.886C1813.08 365.763 1814.94 366.998 1816.02 367.951L1817.89 371.754Q1821.025 412.977 1823.5 454.244C1822.67 458.809 1781.47 501.669 1775.39 508.073C1774.49 508.912 1772.79 510.642 1771.78 511.123C1723.08 509.741 1667.28 510.994 1618.09 511.031L1618.47 509.995L1617.82 509.363L1617.94 507.756A640 640 0 0 1 1613.01 475.765C1612.46 471.229 1613.55 470.812 1612.55 465.6C1611.49 459.505 1611.8 443.823 1611.8 436.856L1611.87 385.372L1611.61 384.164L1611.69 382.671C1612.91 319.673 1611.96 251.261 1611.67 188.066ZM1674.09 441.409C1693.87 441.23 1713.65 441.23 1733.42 441.409C1739.8 436.924 1745.13 433.141 1750.74 427.721C1749.58 420.168 1750.09 388.121 1750.04 378.691C1745.44 377.659 1737.46 375.116 1733.33 374.698C1714.06 372.744 1693.96 372.701 1674.58 371.529L1674.21 373.164C1674.29 382.421 1675.93 434.494 1674.09 441.409ZM1673.07 293.079C1673.03 297.712 1672.45 319.517 1673.84 322.331C1690.54 321.072 1715.19 323.318 1729.94 321.471L1744.94 308.772L1745.17 308.281C1744.6 294.244 1745.05 277.201 1745.05 262.937C1735.47 257.899 1731.47 257.963 1720.69 257.993C1705.37 258.036 1690.05 258.202 1674.73 258.364L1673.24 259.032C1672.4 267.999 1672.98 283.624 1673.07 293.079Z"/><path fill="rgb(33,164,254)" d="M1751.03 378.6C1764.57 377.494 1801.03 370.372 1816.02 367.951L1817.89 371.754Q1821.025 412.977 1823.5 454.244C1822.67 458.809 1781.47 501.669 1775.39 508.073C1774.49 508.912 1772.79 510.642 1771.78 511.123C1723.08 509.741 1667.28 510.994 1618.09 511.031L1618.47 509.995L1617.82 509.363L1617.94 507.756A640 640 0 0 1 1613.01 475.765C1612.46 471.229 1613.55 470.812 1612.55 465.6C1611.49 459.505 1611.8 443.823 1611.8 436.856L1611.87 385.372L1611.61 384.164C1616.64 381.601 1668.76 371.102 1674.58 371.529L1674.21 373.164C1674.29 382.421 1675.93 434.494 1674.09 441.409C1693.87 441.23 1713.65 441.23 1733.42 441.409C1739.8 436.924 1745.13 433.141 1750.74 427.721C1751.65 423.856 1751.09 385.384 1751.03 378.6Z"/><path fill="rgb(90,228,254)" d="M1611.61 384.164C1616.64 381.601 1668.76 371.102 1674.58 371.529L1674.21 373.164C1674.29 382.421 1675.93 434.494 1674.09 441.409L1668.76 444.788C1671.66 447.645 1690.16 467.68 1691.51 470.356C1683.27 474.887 1621.26 509.685 1618.47 509.995L1617.82 509.363L1617.94 507.756A640 640 0 0 1 1613.01 475.765C1612.46 471.229 1613.55 470.812 1612.55 465.6C1611.49 459.505 1611.8 443.823 1611.8 436.856L1611.87 385.372Z"/><path fill="url(#a)" d="M1644.77 441.373C1650.54 436.282 1649.03 430.624 1653.55 427.661L1657.09 428.578C1660.04 432.699 1665.71 441.267 1668.76 444.788C1671.66 447.645 1690.16 467.68 1691.51 470.356C1683.27 474.887 1621.26 509.685 1618.47 509.995L1617.82 509.363L1617.94 507.756C1620.7 504.545 1640.87 450.023 1644.77 441.373Z"/><path fill="rgb(33,164,254)" d="M1611.61 384.164C1616.64 381.601 1668.76 371.102 1674.58 371.529L1674.21 373.164C1674.29 382.421 1675.93 434.494 1674.09 441.409L1668.76 444.788C1665.71 441.267 1660.04 432.699 1657.09 428.578L1653.55 427.661C1649.03 430.624 1650.54 436.282 1644.77 441.373C1645.96 437.283 1650.63 426.857 1652.48 422.463C1642.54 413.162 1622.91 392.16 1611.87 385.372Z"/><path fill="rgb(30,89,243)" d="M1674.21 373.164C1674.29 382.421 1675.93 434.494 1674.09 441.409L1668.76 444.788C1665.71 441.267 1660.04 432.699 1657.09 428.578C1655.43 426.395 1654.56 425.137 1653.2 422.752C1653.23 415.158 1669.05 380.333 1674.21 373.164Z"/><path fill="url(#b)" d="M1751.03 378.6C1764.57 377.494 1801.03 370.372 1816.02 367.951L1817.89 371.754Q1821.025 412.977 1823.5 454.244C1815.56 451.936 1803.83 441.611 1796.48 436.243L1795.72 438.176C1789.04 437.978 1700.23 465.842 1692.94 470.572L1691.51 470.356C1690.16 467.68 1671.66 447.645 1668.76 444.788L1674.09 441.409C1693.87 441.23 1713.65 441.23 1733.42 441.409C1739.8 436.924 1745.13 433.141 1750.74 427.721C1751.65 423.856 1751.09 385.384 1751.03 378.6Z"/><path fill="rgb(37,50,189)" d="M1817.89 371.754Q1821.025 412.977 1823.5 454.244C1815.56 451.936 1803.83 441.611 1796.48 436.243C1801.01 421.813 1810.51 381.396 1817.89 371.754Z"/><path fill="rgb(25,109,251)" d="M1618.47 509.995C1621.26 509.685 1683.27 474.887 1691.51 470.356L1692.94 470.572Q1716.91 482.22 1740.7 494.242C1747.83 497.81 1766.16 506.467 1771.78 511.123C1723.08 509.741 1667.28 510.994 1618.09 511.031Z"/><path fill="rgb(30,89,243)" d="M1795.72 438.176L1796.48 436.243C1803.83 441.611 1815.56 451.936 1823.5 454.244C1822.67 458.809 1781.47 501.669 1775.39 508.073C1774.31 498.232 1791.5 450.74 1795.72 438.176Z"/><path fill="rgb(25,109,251)" d="M1811.67 227.601L1813.23 229.542C1813.3 238.757 1814.98 309.488 1811.74 312.194C1809.12 316.052 1791.93 339.748 1789.49 341.894C1792.06 347.397 1806.94 360.486 1811.84 364.886C1813.08 365.763 1814.94 366.998 1816.02 367.951C1801.03 370.372 1764.57 377.494 1751.03 378.6C1751.09 385.384 1751.65 423.856 1750.74 427.721C1749.58 420.168 1750.09 388.121 1750.04 378.691C1745.44 377.659 1737.46 375.116 1733.33 374.698C1714.06 372.744 1693.96 372.701 1674.58 371.529C1668.76 371.102 1616.64 381.601 1611.61 384.164L1611.69 382.671C1620.37 379.114 1664.45 331.325 1673.84 322.331C1690.54 321.072 1715.19 323.318 1729.94 321.471L1744.94 308.772L1745.17 308.281C1746.79 304.634 1746.06 269.995 1746.13 262.387C1760.19 254.571 1775.07 247.781 1789.34 240.358C1795.56 237.121 1804.93 232.953 1810.37 228.892Z"/><path fill="rgb(15,39,156)" d="M1751.11 329.38C1754.56 331.581 1757.49 333.392 1761.09 335.342C1765.86 335.542 1785.18 339.94 1789.49 341.894C1792.06 347.397 1806.94 360.486 1811.84 364.886C1813.08 365.763 1814.94 366.998 1816.02 367.951C1801.03 370.372 1764.57 377.494 1751.03 378.6C1751.09 385.384 1751.65 423.856 1750.74 427.721C1749.58 420.168 1750.09 388.121 1750.04 378.691C1745.44 377.659 1737.46 375.116 1733.33 374.698C1714.06 372.744 1693.96 372.701 1674.58 371.529C1679.29 365.807 1740.52 334.902 1751.11 329.38Z"/><path fill="rgb(3,121,254)" d="M1761.09 335.342C1765.86 335.542 1785.18 339.94 1789.49 341.894C1792.06 347.397 1806.94 360.486 1811.84 364.886C1804.92 365.421 1769.03 340.664 1761.09 335.342Z"/><path fill="rgb(27,64,217)" d="M1753.44 326.101C1756.36 320.102 1769.73 297.467 1773.19 292.054C1783.62 275.741 1801.04 243.631 1813.23 229.542C1813.3 238.757 1814.98 309.488 1811.74 312.194C1809.12 316.052 1791.93 339.748 1789.49 341.894C1785.18 339.94 1765.86 335.542 1761.09 335.342C1757.49 333.392 1754.56 331.581 1751.11 329.38C1751.64 328.892 1752.95 326.826 1753.44 326.101Z"/><path fill="rgb(30,89,243)" d="M1753.44 326.101C1759.79 329.17 1801.84 311.89 1811.74 312.194C1809.12 316.052 1791.93 339.748 1789.49 341.894C1785.18 339.94 1765.86 335.542 1761.09 335.342C1757.49 333.392 1754.56 331.581 1751.11 329.38C1751.64 328.892 1752.95 326.826 1753.44 326.101Z"/><path fill="rgb(3,121,254)" d="M1729.94 321.471L1744.94 308.772C1746.57 313.521 1748.39 318.199 1750.41 322.796Z"/><path fill="url(#c)" d="M1611.67 188.066C1634.86 187.9 1658.06 187.945 1681.26 188.2C1666.39 188.974 1651.31 188.64 1636.42 188.831C1629.56 188.919 1621.57 188.217 1614.94 189.167L1614.44 190.166L1614.72 190.715C1629.26 214.826 1648.5 237.061 1663.44 261.061C1667.84 268.128 1668.11 291.671 1671 294.796L1673.07 293.079C1673.03 297.712 1672.45 319.517 1673.84 322.331C1664.45 331.325 1620.37 379.114 1611.69 382.671C1612.91 319.673 1611.96 251.261 1611.67 188.066Z"/><path fill="rgb(33,164,254)" d="M1681.26 188.2C1705.12 188.004 1740.74 186.986 1763.84 188.292C1744.14 204.863 1716.59 220.725 1695.68 237.448L1644.57 207.454C1639.15 204.242 1619.88 192.515 1614.72 190.715L1614.44 190.166L1614.94 189.167C1621.57 188.217 1629.56 188.919 1636.42 188.831C1651.31 188.64 1666.39 188.974 1681.26 188.2Z"/><path fill="rgb(27,64,217)" d="M1810.37 228.892C1804.93 232.953 1795.56 237.121 1789.34 240.358C1775.07 247.781 1760.19 254.571 1746.13 262.387C1746.06 269.995 1746.79 304.634 1745.17 308.281C1744.6 294.244 1745.05 277.201 1745.05 262.937C1735.47 257.899 1731.47 257.963 1720.69 257.993C1705.37 258.036 1690.05 258.202 1674.73 258.364C1678.01 253.389 1690.66 242.512 1695.69 237.91C1733.37 235.04 1773.07 230.656 1810.37 228.892Z"/><path fill="rgb(151,0,82)" d="M494.039 220.714L494.718 221.247C504.866 236.707 535.651 314.736 546.777 336.388C546.798 336.428 546.359 338.696 546.302 339.016C546.064 340.34 545.441 341.791 544.885 343.05C532.02 384.07 514.748 428.257 503.148 468.443C502.022 469.645 501.197 470.77 499.693 471.363C480.862 481.822 446.72 501.413 428.018 509.952L418.599 509.737C372.252 510.854 317.276 510.076 270.606 509.538L269.035 509.182L269.962 508.49C273.68 506.351 345.706 439.006 347.131 436.351L347.858 436.348C371.231 431.011 400.819 428.131 424.272 421.281C425.609 420.891 428.073 417.923 429.064 416.679C433.093 409.463 447.631 390.196 453.103 382.577C454.638 358.899 455.445 330.008 452.611 306.366C447.893 302.726 425.006 273.46 420.166 267.329C429.619 260.94 442.272 253.639 452.213 247.577L451.109 246.801L451.177 246.204C453.838 245.954 492.136 222.937 494.039 220.714Z"/><path fill="rgb(255,60,43)" d="M494.039 220.714L494.718 221.247C504.866 236.707 535.651 314.736 546.777 336.388C546.798 336.428 546.359 338.696 546.302 339.016C546.064 340.34 545.441 341.791 544.885 343.05C540.079 342.528 540.857 342.361 536.528 345.647C522.728 356.12 501.149 381.223 487.856 390.066L487.731 392.072L486.422 392.443C470.799 398.648 460.437 405.541 446.032 414.252C440.059 416.163 434.922 418.678 429.064 416.679C433.093 409.463 447.631 390.196 453.103 382.577C454.638 358.899 455.445 330.008 452.611 306.366C447.893 302.726 425.006 273.46 420.166 267.329C429.619 260.94 442.272 253.639 452.213 247.577L451.109 246.801L451.177 246.204C453.838 245.954 492.136 222.937 494.039 220.714Z"/><path fill="rgb(250,17,120)" d="M494.718 221.247C504.866 236.707 535.651 314.736 546.777 336.388C546.798 336.428 546.359 338.696 546.302 339.016C546.064 340.34 545.441 341.791 544.885 343.05C540.079 342.528 540.857 342.361 536.528 345.647C522.728 356.12 501.149 381.223 487.856 390.066L487.841 388.321L490.635 288.278C491.043 274.046 491.97 234.252 494.718 221.247Z"/><path fill="rgb(255,10,66)" d="M452.611 306.366L456.929 303.732C458.855 311.143 485.148 384.892 487.841 388.321L487.856 390.066L487.731 392.072L486.422 392.443C470.799 398.648 460.437 405.541 446.032 414.252C440.059 416.163 434.922 418.678 429.064 416.679C433.093 409.463 447.631 390.196 453.103 382.577C454.638 358.899 455.445 330.008 452.611 306.366Z"/><path fill="rgb(232,1,69)" d="M452.213 247.577C453.359 257.6 457.063 294.83 456.929 303.732L452.611 306.366C447.893 302.726 425.006 273.46 420.166 267.329C429.619 260.94 442.272 253.639 452.213 247.577ZM429.064 416.679C434.922 418.678 440.059 416.163 446.032 414.252C435.139 426.661 422.677 431.399 411.103 440.622C405.018 445.471 393.883 464.057 388.015 470.864C393.133 475.021 398.647 479.261 403.153 484.041C406.335 484.185 410.216 483.21 413.4 482.574C411.938 486.274 410.457 490.202 408.856 493.821C414.416 498.068 423.882 504.885 428.018 509.952L418.599 509.737C372.252 510.854 317.276 510.076 270.606 509.538L269.035 509.182L269.962 508.49C273.68 506.351 345.706 439.006 347.131 436.351L347.858 436.348C371.231 431.011 400.819 428.131 424.272 421.281C425.609 420.891 428.073 417.923 429.064 416.679Z"/><path fill="rgb(159,1,59)" d="M413.4 482.574C411.938 486.274 410.457 490.202 408.856 493.821C414.416 498.068 423.882 504.885 428.018 509.952L418.599 509.737C372.252 510.854 317.276 510.076 270.606 509.538C278.078 508.304 285.748 505.65 292.909 504.602C320.926 500.506 351.799 491.711 379.689 488.955L402.52 484.552L403.153 484.041C406.335 484.185 410.216 483.21 413.4 482.574Z"/><path fill="rgb(186,3,72)" d="M413.4 482.574C411.938 486.274 410.457 490.202 408.856 493.821C414.416 498.068 423.882 504.885 428.018 509.952L418.599 509.737C410.397 506.754 409.682 512.693 404.665 503.149C405.712 498.157 407.709 497.375 408.266 491.615C407.742 488.568 404.913 486.662 402.52 484.552L403.153 484.041C406.335 484.185 410.216 483.21 413.4 482.574Z"/><path fill="rgb(192,1,51)" d="M402.52 484.552C404.913 486.662 407.742 488.568 408.266 491.615C407.709 497.375 405.712 498.157 404.665 503.149C397.542 496.383 389.906 489.277 379.689 488.955Z"/><path fill="rgb(205,8,135)" d="M487.856 390.066C501.149 381.223 522.728 356.12 536.528 345.647C540.857 342.361 540.079 342.528 544.885 343.05C532.02 384.07 514.748 428.257 503.148 468.443C496.337 455.99 490.225 434.592 489.117 420.398C488.388 411.067 488.751 401.422 487.731 392.072Z"/><path fill="rgb(250,17,120)" d="M446.032 414.252C460.437 405.541 470.799 398.648 486.422 392.443C466.342 425.821 443.102 451.043 418.153 480.631C416.847 481.174 414.656 482.168 413.4 482.574C410.216 483.21 406.335 484.185 403.153 484.041C398.647 479.261 393.133 475.021 388.015 470.864C393.883 464.057 405.018 445.471 411.103 440.622C422.677 431.399 435.139 426.661 446.032 414.252Z"/><path fill="rgb(205,8,135)" d="M418.153 480.631C429.956 478.756 492.611 468.346 499.693 471.363C480.862 481.822 446.72 501.413 428.018 509.952C423.882 504.885 414.416 498.068 408.856 493.821C410.457 490.202 411.938 486.274 413.4 482.574C414.656 482.168 416.847 481.174 418.153 480.631Z"/><path fill="rgb(27,64,217)" d="M1407.27 327.078C1416.55 296.169 1428.36 263.634 1438.91 233.055C1442.43 222.83 1450.85 197.973 1455.19 189.391C1457.99 187.532 1463.02 188.167 1466.58 188.278C1483.9 188.167 1511.95 187.267 1528.63 188.375A1342 1342 0 0 0 1489.38 242.64L1488.61 243.971L1488.4 245.233C1490.59 252.995 1490.87 267.825 1491.51 276.446C1482.16 298.349 1474.91 324.733 1466.44 347.361C1463.1 357.24 1459.28 367.893 1456.52 377.875C1474.53 377.711 1504.93 376.687 1522.1 377.993L1522.79 377.761C1529.52 391.89 1546.51 425.415 1551.29 438.929L1550.51 439.408C1548.27 440.704 1539.56 445.425 1538.47 446.976C1537.91 446.582 1449.73 446.893 1440.88 446.904L1439.8 446.888C1433.85 463.551 1429.51 491.977 1423.48 506.899C1423.21 507.709 1422.73 509.778 1422.21 509.847C1404.7 512.172 1370.87 511.012 1354.2 510.937L1354.02 510.256L1354.67 509.246C1354.13 506.687 1354.1 507.683 1355 505.118C1357.77 499.96 1364.88 469.945 1367.29 462.215C1380.07 421.388 1390.73 376.402 1404.68 336.175C1405.11 333.546 1406.44 329.719 1407.27 327.078Z"/><path fill="rgb(138,73,242)" d="M1404.68 336.175L1406.03 335.821C1407.63 343.446 1415.52 438.326 1414.79 440.788L1415.77 440.986L1416.39 439.244C1423.75 441.681 1432.46 444.782 1439.8 446.888C1433.85 463.551 1429.51 491.977 1423.48 506.899C1423.21 507.709 1422.73 509.778 1422.21 509.847C1404.7 512.172 1370.87 511.012 1354.2 510.937L1354.02 510.256L1354.67 509.246C1354.13 506.687 1354.1 507.683 1355 505.118C1357.77 499.96 1364.88 469.945 1367.29 462.215C1380.07 421.388 1390.73 376.402 1404.68 336.175Z"/><path fill="rgb(48,2,108)" d="M1416.39 439.244C1423.75 441.681 1432.46 444.782 1439.8 446.888C1433.85 463.551 1429.51 491.977 1423.48 506.899C1423.21 507.709 1422.73 509.778 1422.21 509.847C1404.7 512.172 1370.87 511.012 1354.2 510.937L1354.02 510.256L1354.67 509.246C1374.69 488.798 1393.71 462.213 1414.79 440.788L1415.77 440.986Z"/><path fill="rgb(27,64,217)" d="M1416.39 439.244C1423.75 441.681 1432.46 444.782 1439.8 446.888C1433.85 463.551 1429.51 491.977 1423.48 506.899C1420.97 503.177 1416.64 449.753 1415.77 440.986Z"/><path fill="rgb(30,89,243)" d="M1407.27 327.078C1416.55 296.169 1428.36 263.634 1438.91 233.055C1442.43 222.83 1450.85 197.973 1455.19 189.391C1457.99 187.532 1463.02 188.167 1466.58 188.278C1483.9 188.167 1511.95 187.267 1528.63 188.375A1342 1342 0 0 0 1489.38 242.64L1488.61 243.971L1488.4 245.233C1472.66 259.274 1420.81 321.226 1409.15 327.641Z"/><path fill="rgb(25,109,251)" d="M1466.58 188.278C1483.9 188.167 1511.95 187.267 1528.63 188.375A1342 1342 0 0 0 1489.38 242.64C1484.06 235.128 1460.55 198.238 1458.03 190.727C1459.84 189.136 1463.81 188.837 1466.58 188.278Z"/><path fill="rgb(37,50,189)" d="M1522.1 377.993L1522.79 377.761C1529.52 391.89 1546.51 425.415 1551.29 438.929L1550.51 439.408C1548.27 440.704 1539.56 445.425 1538.47 446.976C1537.91 446.582 1449.73 446.893 1440.88 446.904L1440.65 446.174C1462.1 428.153 1484.25 410.83 1505.75 392.858C1511.11 388.38 1517.89 383.411 1522.1 377.993Z"/><path fill="rgb(37,50,189)" d="M1406.03 335.821C1406.68 335.393 1408 334.338 1408.41 334.624C1420.98 343.322 1445.33 368.13 1455.77 378.215L1455.07 379.784C1452.95 390.366 1439.59 440.21 1440.65 446.174L1440.88 446.904L1439.8 446.888C1432.46 444.782 1423.75 441.681 1416.39 439.244L1415.77 440.986L1414.79 440.788C1415.52 438.326 1407.63 343.446 1406.03 335.821Z"/><path fill="rgb(15,39,156)" d="M1416.39 439.244C1420.47 430.313 1448.58 386.707 1455.07 379.784C1452.95 390.366 1439.59 440.21 1440.65 446.174L1440.88 446.904L1439.8 446.888C1432.46 444.782 1423.75 441.681 1416.39 439.244ZM1488.4 245.233C1490.59 252.995 1490.87 267.825 1491.51 276.446C1482.16 298.349 1474.91 324.733 1466.44 347.361C1462.08 338.028 1484.48 261.778 1488.4 245.233Z"/><path fill="rgb(205,8,135)" d="M1184.74 189.921C1194.82 189.898 1266.64 188.964 1270.08 191.014C1271.01 236.821 1269.73 282.994 1270.21 328.836C1270.31 338.047 1270.35 347.63 1270.02 356.83L1270.29 362.139C1270.22 383.098 1269.35 410.824 1270.44 431.342C1263.66 438.825 1236.02 462.588 1226.97 470.314C1219.48 465.833 1191.55 443.922 1185.42 443.005L1184.02 445.794C1182.6 431.272 1183.92 390.205 1183.92 373.906L1183.98 247.499C1184.1 228.067 1184.87 209.673 1184.74 189.921Z"/><path fill="rgb(92,3,120)" d="M1270.08 191.014C1271.01 236.821 1269.73 282.994 1270.21 328.836C1270.31 338.047 1270.35 347.63 1270.02 356.83L1270.29 362.139C1258.77 372.944 1194.87 435.485 1186.65 438.98C1208.99 383.05 1224.54 325.42 1241.17 267.53L1240.99 266.739C1250.15 244.87 1258.73 211.178 1270.08 191.014Z"/><path fill="rgb(94,16,154)" d="M1270.08 191.014C1271.01 236.821 1269.73 282.994 1270.21 328.836C1270.31 338.047 1270.35 347.63 1270.02 356.83L1268.54 356.34C1262.32 346.683 1246.74 283.856 1241.17 267.53L1240.99 266.739C1250.15 244.87 1258.73 211.178 1270.08 191.014Z"/><path fill="rgb(138,73,242)" d="M1184.74 189.921C1194.82 189.898 1266.64 188.964 1270.08 191.014C1258.73 211.178 1250.15 244.87 1240.99 266.739C1222.48 242.501 1203.94 213.103 1184.74 189.921Z"/><path fill="rgb(255,100,10)" d="M269.007 185.771C269.971 186.266 272.76 187.521 273.17 188.294C297.924 210.09 323.553 235.865 347.96 256.399L347.481 257.244C348.713 276.28 347.887 302.661 347.864 322.55L347.858 436.348L347.131 436.351C345.706 439.006 273.68 506.351 269.962 508.49L269.035 509.182C267.31 486.06 268.675 445.689 268.643 420.675C269.798 343.269 268.892 263.419 269.007 185.771Z"/><path fill="rgb(255,10,66)" d="M347.481 257.244C348.713 276.28 347.887 302.661 347.864 322.55L347.858 436.348L347.131 436.351C345.706 439.006 273.68 506.351 269.962 508.49L269.035 509.182C267.31 486.06 268.675 445.689 268.643 420.675C275.491 417.228 306.414 359.049 317.966 344.788L318.376 344.021L318.748 343.972C321.83 327.607 333.422 297.697 338.492 280.554C340.814 272.704 346.614 263.654 347.481 257.244Z"/><path fill="rgb(232,1,69)" d="M347.481 257.244C348.713 276.28 347.887 302.661 347.864 322.55L347.858 436.348L347.131 436.351C347.11 430.399 339.789 413.168 337.495 405.881C331.015 385.302 325.136 364.558 318.748 343.972C321.83 327.607 333.422 297.697 338.492 280.554C340.814 272.704 346.614 263.654 347.481 257.244Z"/><path fill="rgb(255,93,39)" d="M317.966 344.788A1949 1949 0 0 1 283.454 468.012C279.208 481.67 274.118 495.072 269.962 508.49L269.035 509.182C267.31 486.06 268.675 445.689 268.643 420.675C275.491 417.228 306.414 359.049 317.966 344.788Z"/><path fill="rgb(255,60,43)" d="M273.17 188.294C297.924 210.09 323.553 235.865 347.96 256.399L347.481 257.244C346.614 263.654 340.814 272.704 338.492 280.554C333.422 297.697 321.83 327.607 318.748 343.972L318.376 344.021C318.353 340.351 311.853 320.371 310.443 315.672A5158 5158 0 0 0 287.547 240.453C284.932 232.184 271.201 193.334 273.17 188.294Z"/><path fill="rgb(205,8,135)" d="M694.75 371.223C707.041 366.601 734.846 327.63 748.166 319.452L748.825 321.622C767.651 374.418 783.235 429.151 801.295 482.268C804.245 490.945 806.948 499.884 809.494 508.687L809.5 508.989L808.558 509.915Q770.014 510.069 731.472 509.708L729.626 501.69C725.505 487.127 719.368 462.66 716.613 448.096L717.944 445.731C718.557 442.668 724.289 438.608 726.952 437.01L727.47 436.976L727.879 434.409L727.255 434.322C719.386 422.699 702.5 390.454 696.84 377.765Z"/><path fill="rgb(118,1,101)" d="M726.952 437.01L727.47 436.976L727.947 437.639C745.684 449.162 772.691 477.813 790.398 492.244C795.309 496.246 804.585 505.669 809.494 508.687L809.5 508.989L808.558 509.915Q770.014 510.069 731.472 509.708L729.626 501.69C725.505 487.127 719.368 462.66 716.613 448.096L717.944 445.731C718.557 442.668 724.289 438.608 726.952 437.01Z"/><path fill="rgb(205,8,135)" d="M726.952 437.01L727.47 436.976L727.947 437.639C727.972 449.2 732.54 495.03 729.626 501.69C725.505 487.127 719.368 462.66 716.613 448.096L717.944 445.731C718.557 442.668 724.289 438.608 726.952 437.01Z"/><path fill="rgb(250,17,120)" d="M726.952 437.01C727.041 441.206 727.741 442.066 725.899 445.274C723.132 446.508 720.93 446.029 717.944 445.731C718.557 442.668 724.289 438.608 726.952 437.01ZM694.75 371.223C707.041 366.601 734.846 327.63 748.166 319.452L748.825 321.622C742.939 331.505 734.321 397.525 731.406 413.076C730.492 417.954 729.334 429.782 727.879 434.409L727.255 434.322C719.386 422.699 702.5 390.454 696.84 377.765Z"/><path fill="rgb(255,10,66)" d="M269.007 185.771C271.158 184.358 277.588 184.961 280.519 185.045L419.471 184.944L468.241 207.691C473.431 210.129 489.934 217.69 494.039 220.714C492.136 222.937 453.838 245.954 451.177 246.204L451.109 246.801L452.213 247.577C442.272 253.639 429.619 260.94 420.166 267.329C411.71 263.642 360.067 258.338 348.814 256.097L347.96 256.399C323.553 235.865 297.924 210.09 273.17 188.294C272.76 187.521 269.971 186.266 269.007 185.771Z"/><path fill="rgb(255,93,39)" d="M269.007 185.771C271.158 184.358 277.588 184.961 280.519 185.045C282.476 187.991 282.826 188.286 286.308 189.541C333.585 206.588 382.251 219.904 429.207 237.892C432.894 239.305 446.813 244.172 449.246 246.117L451.109 246.801L452.213 247.577C442.272 253.639 429.619 260.94 420.166 267.329C411.71 263.642 360.067 258.338 348.814 256.097L347.96 256.399C323.553 235.865 297.924 210.09 273.17 188.294C272.76 187.521 269.971 186.266 269.007 185.771Z"/><path fill="rgb(255,10,66)" d="M389.33 235.566A1103 1103 0 0 1 449.246 246.117L451.109 246.801L452.213 247.577C442.272 253.639 429.619 260.94 420.166 267.329C411.71 263.642 360.067 258.338 348.814 256.097C351.793 252.579 383.199 238.386 389.33 235.566Z"/><path fill="rgb(255,144,18)" d="M419.471 184.944L468.241 207.691C473.431 210.129 489.934 217.69 494.039 220.714C492.136 222.937 453.838 245.954 451.177 246.204C441.459 225.701 429.16 206.18 419.471 184.944Z"/><path fill="rgb(255,100,10)" d="M627.771 188.073C651.994 188.086 680.957 187.324 704.78 188.164C713.131 209.365 721.466 239.102 729.14 261.393C733.515 274.103 745.179 307.058 747.909 318.826L748.166 319.452C734.846 327.63 707.041 366.601 694.75 371.223C685.474 339.87 673.907 308.242 664.722 276.697C662.246 270.875 663.926 250.065 660.565 245.667L660.222 244.61L661.304 242.9L661.397 242.243C657.037 232.665 628.051 193.31 627.771 188.073Z"/><path fill="rgb(255,10,66)" d="M661.304 242.9C670.804 247.073 716.547 292.986 728.331 302.826C732.911 306.65 742.257 316.303 747.909 318.826L748.166 319.452C734.846 327.63 707.041 366.601 694.75 371.223C685.474 339.87 673.907 308.242 664.722 276.697C662.246 270.875 663.926 250.065 660.565 245.667L660.222 244.61Z"/><path fill="rgb(255,165,38)" d="M627.771 188.073C651.994 188.086 680.957 187.324 704.78 188.164C691.19 205.585 675.725 225.389 661.397 242.243C657.037 232.665 628.051 193.31 627.771 188.073Z"/><path fill="rgb(255,60,43)" d="M513.265 507.014C516.411 495.847 521.002 484.068 524.649 472.973C541.276 422.386 560.355 372.307 577.144 321.802C587.26 328.533 611.825 377.4 618.385 380.109L619.429 378.887L621.921 379.261L618.988 382.763C618.378 383.375 616.23 385.462 615.839 386.016C616.083 391.815 603.198 436.542 600.311 443.369L605.469 446.102C603.991 453.178 601.505 462.584 598.834 469.316C596.619 480.698 591.088 498.334 587.859 509.984C579.942 509.982 514.689 510.452 512.77 509.025Z"/><path fill="rgb(250,17,120)" d="M600.311 443.369L605.469 446.102C603.991 453.178 601.505 462.584 598.834 469.316C596.619 480.698 591.088 498.334 587.859 509.984C579.942 509.982 514.689 510.452 512.77 509.025L513.265 507.014L516.368 504.607C524.61 501.763 588.819 453.111 599.196 445.236Z"/><path fill="rgb(151,0,82)" d="M600.311 443.369L605.469 446.102C603.991 453.178 601.505 462.584 598.834 469.316C596.221 465.592 598.613 450.734 599.196 445.236Z"/><path fill="rgb(159,1,59)" d="M615.839 386.016C616.083 391.815 603.198 436.542 600.311 443.369L599.196 445.236C588.819 453.111 524.61 501.763 516.368 504.607C524.972 495.334 538.552 477.027 547.571 466.083A3028 3028 0 0 1 615.839 386.016Z"/><path fill="rgb(27,64,217)" d="M1571.39 325.791L1571.84 326.896C1582.19 358.382 1590.18 391.606 1598.88 423.617C1603.08 439.069 1606.73 455.162 1611.87 470.264L1612.55 465.6C1613.55 470.812 1612.46 471.229 1613.01 475.765A640 640 0 0 0 1617.94 507.756L1617.82 509.363L1618.47 509.995L1618.09 511.031C1596.42 510.734 1573.85 511.013 1552.13 511.011L1550.36 502.289C1547.75 494.79 1539.78 455.272 1538.47 446.976C1539.56 445.425 1548.27 440.704 1550.51 439.408L1551.29 438.929C1546.51 425.415 1529.52 391.89 1522.79 377.761L1521.76 374.016C1534.76 363.791 1555.46 338.068 1570 324.854Z"/><path fill="rgb(15,39,156)" d="M1550.51 439.408L1552.13 440.439C1562.02 446.244 1609.15 499.203 1617.82 509.363L1618.47 509.995L1618.09 511.031C1596.42 510.734 1573.85 511.013 1552.13 511.011L1550.36 502.289C1547.75 494.79 1539.78 455.272 1538.47 446.976C1539.56 445.425 1548.27 440.704 1550.51 439.408Z"/><path fill="rgb(30,89,243)" d="M1550.51 439.408L1552.13 440.439C1552.11 450.258 1553.53 497.079 1550.36 502.289C1547.75 494.79 1539.78 455.272 1538.47 446.976C1539.56 445.425 1548.27 440.704 1550.51 439.408ZM1571.39 325.791L1571.84 326.896C1564.23 335.08 1557.75 429.612 1551.29 438.929C1546.51 425.415 1529.52 391.89 1522.79 377.761L1521.76 374.016C1534.76 363.791 1555.46 338.068 1570 324.854Z"/><path fill="rgb(255,100,10)" d="M578.557 318.022C582.111 306.605 625.425 189.577 627.771 188.073C628.051 193.31 657.037 232.665 661.397 242.243L661.304 242.9L660.222 244.61L660.565 245.667C663.926 250.065 662.246 270.875 664.722 276.697C661.148 283.387 656.383 296.658 653.536 304.11L635.293 352.258C633.514 356.969 626.731 374.671 624.347 377.678L621.921 379.261L619.429 378.887L618.385 380.109C611.825 377.4 587.26 328.533 577.144 321.802Z"/><path fill="rgb(255,144,18)" d="M578.557 318.022C582.111 306.605 625.425 189.577 627.771 188.073C628.051 193.31 657.037 232.665 661.397 242.243L661.304 242.9L660.222 244.61C653.879 247.898 646.154 256.362 641.07 260.88C628.549 272.007 590.377 312.959 579.056 317.804Z"/><path fill="rgb(232,1,69)" d="M660.565 245.667C663.926 250.065 662.246 270.875 664.722 276.697C661.148 283.387 656.383 296.658 653.536 304.11L635.293 352.258C633.514 356.969 626.731 374.671 624.347 377.678L621.921 379.261L619.429 378.887C633.321 334.076 645.943 290.487 660.565 245.667Z"/><path fill="rgb(94,16,154)" d="M1270.44 431.342C1291.86 431.345 1320.27 430.582 1341.24 431.782L1354.94 431.371C1354.95 454.786 1354.27 482.11 1355 505.118C1354.1 507.683 1354.13 506.687 1354.67 509.246L1354.02 510.256L1354.2 510.937L1276.03 510.867L1274.48 509.959L1272.35 509.623C1259.32 497.171 1239.98 482.27 1226.98 470.834L1226.97 470.314C1236.02 462.588 1263.66 438.825 1270.44 431.342Z"/><path fill="rgb(15,39,156)" d="M1354.94 431.371C1354.95 454.786 1354.27 482.11 1355 505.118C1354.1 507.683 1354.13 506.687 1354.67 509.246L1354.02 510.256L1354.2 510.937L1276.03 510.867L1274.48 509.959C1277.36 505.065 1305.9 475.345 1310.99 470.719L1311.01 470.304C1319.45 463.021 1348.52 438.867 1354.94 431.371Z"/><path fill="rgb(48,2,108)" d="M1310.99 470.719C1325.65 483.883 1339.58 497.112 1354.02 510.256L1354.2 510.937L1276.03 510.867L1274.48 509.959C1277.36 505.065 1305.9 475.345 1310.99 470.719Z"/><path fill="rgb(138,73,242)" d="M1341.24 431.782L1354.94 431.371C1348.52 438.867 1319.45 463.021 1311.01 470.304C1297.74 458.613 1282.1 444.953 1270.06 432.069C1291.61 432.168 1320.2 432.977 1341.24 431.782Z"/><path fill="rgb(37,50,189)" d="M1528.63 188.375C1541.36 232.578 1556.63 276.296 1569.93 320.355C1570.5 322.238 1571.01 323.849 1571.39 325.791L1570 324.854C1555.46 338.068 1534.76 363.791 1521.76 374.016A4746 4746 0 0 0 1491.51 276.446C1490.87 267.825 1490.59 252.995 1488.4 245.233L1488.61 243.971L1489.38 242.64A1342 1342 0 0 1 1528.63 188.375Z"/><path fill="rgb(30,89,243)" d="M1528.63 188.375C1541.36 232.578 1556.63 276.296 1569.93 320.355C1570.5 322.238 1571.01 323.849 1571.39 325.791L1570 324.854C1569.24 323.12 1494.67 248.704 1488.61 243.971L1489.38 242.64A1342 1342 0 0 1 1528.63 188.375Z"/><path fill="rgb(232,1,69)" d="M696.84 377.765C702.5 390.454 719.386 422.699 727.255 434.322L727.879 434.409L727.47 436.976L726.952 437.01C724.289 438.608 718.557 442.668 717.944 445.731L716.613 448.096L715.677 446.407C712.224 445.723 688.807 446.201 683.36 446.21L605.469 446.102L600.311 443.369C603.198 436.542 616.083 391.815 615.839 386.016C616.23 385.462 618.378 383.375 618.988 382.763L621.921 379.261L624.347 377.678C648.218 378.249 672.908 377.854 696.84 377.765Z"/><path fill="rgb(255,100,10)" d="M696.84 377.765C702.5 390.454 719.386 422.699 727.255 434.322L725.739 435.341C718.298 433.01 696.474 421.676 688.97 417.902L618.988 382.763L621.921 379.261L624.347 377.678C648.218 378.249 672.908 377.854 696.84 377.765Z"/><path fill="rgb(48,2,108)" d="M1185.42 443.005C1191.55 443.922 1219.48 465.833 1226.97 470.314L1226.98 470.834C1239.98 482.27 1259.32 497.171 1272.35 509.623L1274.48 509.959L1276.03 510.867L1184.39 510.984C1183.12 493.916 1183.96 463.546 1184.02 445.794Z"/><path fill="rgb(151,0,82)" d="M1185.42 443.005C1191.55 443.922 1219.48 465.833 1226.97 470.314L1226.98 470.834C1215.8 480.947 1194.07 503.294 1184.39 510.984C1183.12 493.916 1183.96 463.546 1184.02 445.794Z"/><path fill="rgb(255,144,18)" d="M1114.73 32.738C1118.96 33.228 1124.49 37.142 1128.06 39.67L1139.52 48.441A1880 1880 0 0 1 1100.89 90.699C1094.14 97.949 1082.59 110.855 1074.99 116.82C1075.83 114.81 1079.27 106.14 1080.32 105.028C1089.28 82.468 1105.79 56.038 1114.73 32.738Z"/><path fill="rgb(255,218,40)" d="M1114.73 32.738C1118.96 33.228 1124.49 37.142 1128.06 39.67C1125.68 43.46 1123.21 47.597 1120.43 51.064L1120.75 51.886C1110.51 61.004 1090.03 100.977 1080.32 105.028C1089.28 82.468 1105.79 56.038 1114.73 32.738Z"/><path fill="rgb(255,233,28)" d="M1114.73 32.738C1118.96 33.228 1124.49 37.142 1128.06 39.67C1125.68 43.46 1123.21 47.597 1120.43 51.064C1117.85 50.204 1115.6 36.354 1114.73 32.738Z"/><path fill="rgb(255,183,3)" d="M1128.06 39.67L1139.52 48.441C1134.68 49.354 1125.29 51.404 1120.75 51.886L1120.43 51.064C1123.21 47.597 1125.68 43.46 1128.06 39.67Z"/><path fill="rgb(255,100,10)" d="M1207.31 116.994C1209.31 115.347 1212.34 112.689 1214.43 111.349L1221.87 123.71C1224.17 127.211 1227.31 132.128 1228.26 136.287C1211.59 141.817 1193.13 151.14 1176.58 157.587C1173.05 158.964 1160.4 164.611 1157.02 165.289C1151.81 167.868 1144.97 170.45 1139.5 172.688C1145.78 165.967 1158.92 156.024 1166.41 149.997A3468 3468 0 0 1 1207.31 116.994Z"/><path fill="rgb(255,165,38)" d="M1139.5 172.688C1145.78 165.967 1158.92 156.024 1166.41 149.997A3468 3468 0 0 1 1207.31 116.994C1209.96 121.476 1209.96 122.157 1208.64 127.262Q1208.19 129.002 1207.68 130.724L1207.3 131.698C1199.91 136.178 1156.92 159.736 1157.02 165.289C1151.81 167.868 1144.97 170.45 1139.5 172.688Z"/><path fill="rgb(255,218,40)" d="M1207.31 116.994C1209.31 115.347 1212.34 112.689 1214.43 111.349L1221.87 123.71C1219.37 125.113 1209.93 130.712 1207.68 130.724Q1208.19 129.001 1208.64 127.262C1209.96 122.157 1209.96 121.476 1207.31 116.994Z"/><path fill="rgb(255,183,3)" d="M1221.87 123.71C1224.17 127.211 1227.31 132.128 1228.26 136.287C1221.45 134.62 1214.18 133.172 1207.3 131.698L1207.68 130.724C1209.93 130.712 1219.37 125.113 1221.87 123.71Z"/><path fill="rgb(255,144,18)" d="M756.077 122.597C758.026 119.151 761.634 111.753 765.017 110.089L767.265 111.17C774.569 118.152 818.39 151.109 820.193 154.267C825.961 157.95 833.727 164.852 839.015 169.357C812.161 160.397 776.791 144.93 749.814 134.034Z"/><path fill="rgb(255,183,3)" d="M756.077 122.597C758.026 119.151 761.634 111.753 765.017 110.089L767.265 111.17C774.569 118.152 818.39 151.109 820.193 154.267L819.502 155.156C818.799 154.959 818.57 154.879 817.83 154.782C806.923 153.353 779.294 131.553 770.041 130.471L771.342 129.806L771.505 128.027C767.2 127.932 760.284 124.432 756.077 122.597Z"/><path fill="rgb(255,233,28)" d="M756.077 122.597C758.026 119.151 761.634 111.753 765.017 110.089L767.265 111.17C767.194 116.415 769.511 123.108 771.505 128.027C767.2 127.932 760.284 124.432 756.077 122.597Z"/><path fill="rgb(255,218,40)" d="M749.814 134.034L756.077 122.597C760.284 124.432 767.2 127.932 771.505 128.027L771.342 129.806L770.041 130.471Z"/><path fill="rgb(255,183,3)" d="M851.771 36.2C855.241 33.937 859.713 31.633 863.41 29.61C872.931 50.586 883.688 72.906 892.77 93.822L889.594 96.375C890.052 98.427 890.767 101.005 890.626 103.041C875.995 89.605 855.469 62.777 839.355 46.712C840.42 42.426 847.804 38.667 851.771 36.201Z"/><path fill="rgb(255,144,18)" d="M851.771 36.2C855.241 33.937 859.713 31.633 863.41 29.61C872.931 50.586 883.688 72.906 892.77 93.822L889.594 96.375C883.495 88.253 864.642 59.328 860.132 50.455L859.285 50.307C858.129 47.394 853.474 39.332 851.771 36.201Z"/><path fill="rgb(255,218,40)" d="M851.771 36.2C855.241 33.937 859.713 31.633 863.41 29.61C862.449 36.869 861.531 43.27 860.132 50.455L859.285 50.307C858.129 47.394 853.474 39.332 851.771 36.201Z"/><path fill="rgb(255,233,28)" d="M839.355 46.712C840.42 42.426 847.804 38.667 851.771 36.201C853.474 39.332 858.129 47.394 859.285 50.307C857.131 50.454 845.828 46.857 839.355 46.712Z"/><path fill="rgb(255,218,40)" d="M756.533 239.653C756.691 235.535 756.072 231.836 758.464 229.263L761.656 229.762C768.831 231.444 796.96 237.359 802.05 239.287C799.513 242.164 799.562 241.355 794.904 242.029C797.632 243.257 799.57 243.882 801.455 246.257C788.875 247.609 770.326 248.651 757.617 248.92C756.025 246.419 756.482 242.734 756.533 239.653Z"/><path fill="rgb(255,144,18)" d="M767.469 240.378L794.904 242.029C797.632 243.257 799.57 243.882 801.455 246.257C788.875 247.609 770.326 248.651 757.617 248.92C760.041 246.469 764.702 242.735 767.469 240.378Z"/><path fill="rgb(255,233,28)" d="M756.533 239.653C756.691 235.535 756.072 231.836 758.464 229.263L761.656 229.762L761.748 230.071C763.401 235.477 766.865 237.522 766.104 239.767C762.281 240.125 760.343 239.953 756.533 239.653Z"/><path fill="rgb(255,165,38)" d="M802.05 239.287C809.72 240.705 816.217 241.924 823.604 244.555C815.257 245.729 809.906 246.028 801.455 246.257C799.57 243.882 797.632 243.257 794.904 242.029C799.562 241.355 799.513 242.164 802.05 239.287ZM892.77 93.822C895.693 100.139 900.078 108.963 902.451 115.269C899.416 112.25 892.991 106.196 890.626 103.041C890.767 101.005 890.052 98.427 889.594 96.375Z"/><path fill="rgb(255,218,40)" d="M0 184.937L159.455 184.968C151.331 195.577 97.286 250.224 96.328 254.444L93.979 256.245L93.755 256.676Q94.111 281.696 93.625 306.713C92.015 306.069 69.823 307.786 63.845 306.963C71.613 320.585 83.971 340.716 90.597 354.243L91.142 354.721C92.086 361.618 92.551 371.747 93.847 377.914C93.979 386.142 93.13 423.713 94.695 428.652L95.605 429.001C144.128 427.734 196.301 430.398 244.074 428.472L245.583 429.658C246.922 447.039 245.953 489.376 245.754 508.005L244.202 509.02C224.086 510.423 186.152 509.141 164.941 509.123L5.137 509.246L0 509.511Z"/><path fill="rgb(255,218,40)" d="M0 184.937L159.455 184.968C151.331 195.577 97.286 250.224 96.328 254.444L93.979 256.245L93.755 256.676Q94.111 281.696 93.625 306.713C92.015 306.069 69.823 307.786 63.845 306.963C71.613 320.585 83.971 340.716 90.597 354.243C80.987 361.905 17.717 403.815 8.08 407.526C5.929 409.283 3.39 411.475 1.172 413.062C1.164 423.538 2.001 495.824 0 499.163Z"/><path fill="rgb(255,183,3)" d="M0 184.937L159.455 184.968C151.331 195.577 97.286 250.224 96.328 254.444L93.979 256.245C81.237 247.538 9.794 189.833 3.392 189.297L0 186.839Z"/><path fill="rgb(255,144,18)" d="M3.392 189.297C9.794 189.833 81.237 247.538 93.979 256.245L93.755 256.676Q94.111 281.696 93.625 306.713C92.015 306.069 69.823 307.786 63.845 306.963L63.237 306.911C62.606 303.656 47.123 274.625 44.597 269.742Z"/><path fill="rgb(255,93,39)" d="M63.844 306.963C64.392 303.039 90.176 259.923 93.755 256.676Q94.111 281.696 93.625 306.713C92.015 306.069 69.823 307.786 63.845 306.963Z"/><path fill="rgb(255,165,38)" d="M63.844 306.963C71.614 320.585 83.971 340.716 90.597 354.243C80.987 361.905 17.717 403.815 8.08 407.526C20.572 380.045 36.841 353.679 51.237 327.132C54.787 320.586 58.959 312.934 63.237 306.911Z"/><path fill="rgb(232,1,69)" d="M95.605 429.001C144.128 427.734 196.301 430.398 244.074 428.472L245.583 429.658C246.922 447.039 245.953 489.376 245.754 508.005L244.202 509.02C236.335 503.452 159.037 477.223 145.126 472.466L144.088 472.176L141.918 470.797C131.334 457.698 105.686 442.424 95.605 429.001Z"/><path fill="rgb(255,100,10)" d="M95.605 429.001C144.128 427.734 196.301 430.398 244.074 428.472C237.846 432.372 231.611 435.013 225.035 438.144C198.98 450.55 171.223 460.32 145.126 472.466L144.088 472.176L141.918 470.797C131.334 457.698 105.686 442.424 95.605 429.001Z"/><path fill="rgb(255,144,18)" d="M144.088 472.176L145.126 472.466C159.037 477.223 236.335 503.452 244.202 509.02C224.086 510.423 186.152 509.141 164.941 509.123L5.137 509.246L5.285 507.717C32.971 502.318 64.396 492.662 92.245 486.162C100.937 484.133 137.241 475.037 144.088 472.176Z"/><path fill="rgb(255,100,10)" d="M90.597 354.243L91.142 354.721C92.086 361.618 92.551 371.747 93.847 377.914C93.979 386.142 93.13 423.713 94.695 428.652C89.858 429.878 79.565 438.308 74.908 441.756C55.63 432.832 26.03 418.364 8.08 407.526C17.716 403.815 80.988 361.905 90.597 354.243Z"/><path fill="rgb(255,144,18)" d="M1.172 413.062C3.391 411.475 5.929 409.283 8.08 407.526C26.03 418.364 55.63 432.832 74.908 441.756L74.39 442.372C52.397 462.975 25.405 485.565 4.69 506.536L5.285 507.717L5.137 509.246L0 509.511L0 499.163C2 495.824 1.164 423.538 1.172 413.062Z"/><path fill="rgb(255,144,18)" d="M94.695 428.652L95.605 429.001C105.686 442.424 131.334 457.698 141.918 470.797C120.353 463.522 96.138 449.976 74.39 442.372L74.908 441.756C79.564 438.308 89.858 429.878 94.695 428.652Z"/><path fill="rgb(255,10,66)" d="M982.202 131.332C984.691 130.237 985.098 130.134 987.713 130.742C1003.27 135.593 1036.41 144.86 1049.9 150.316L1051.18 150.625C1053.5 152.238 1056.42 154.044 1058.19 156.173C1072.27 167.722 1113.04 202.433 1124.24 214.423C1127.21 230.941 1129.74 248.131 1132.33 264.76C1133.51 272.37 1136.06 286.238 1136.49 293.248C1137.02 296.121 1137.34 298.154 1137.6 301.111C1132.99 313.759 1113.97 353.155 1107.45 366.071L1105.36 370.605C1090.77 393.641 1075.56 423.641 1061.61 444.686L1061.47 445.659C1055.57 445.554 1044.55 446.328 1039.6 445.031L1038.87 445.083L1038.4 445.875Q1020.805 446.119 1003.21 445.891C1004.94 433.638 1005.58 418.916 1007.24 405.765C1007.23 397.525 1012.52 371.254 1014.49 362.68L1018.58 343.813C1019.25 337.92 1022.98 322.465 1024.54 315.655C1028.1 300.032 1031.21 282.635 1035.32 267.378C1034.52 267.164 1031.06 266.321 1030.51 266.399C1023.42 267.393 1009.66 279.944 1004.66 284.267L987.479 264.31C989.634 261.68 994.748 216.152 995.107 209.87L994.646 207.859L993.633 207.8C984.162 204.727 945.385 215.053 939.277 209.172L937.873 213.852C935.428 212.366 909.194 207.459 905.998 207.667L905.469 207.088L906.052 206.184C904.492 202.188 897.893 167.145 897.889 162.691L897.932 161.854C921.853 151.751 957.33 139.104 982.202 131.332Z"/><path fill="url(#d)" d="M982.202 131.332C984.691 130.237 985.098 130.134 987.713 130.742C1003.27 135.593 1036.41 144.86 1049.9 150.316C1042.72 154.572 1028.49 160.661 1020.5 164.143C1026.2 169.668 1046.29 188.23 1049.19 193.14C1042.53 194.867 998.869 204.972 996.235 208.482L995.107 209.87L994.646 207.859L993.633 207.8C984.162 204.727 945.385 215.053 939.277 209.172L937.873 213.852C935.428 212.366 909.194 207.459 905.998 207.667L905.469 207.088L906.052 206.184C904.492 202.188 897.893 167.145 897.889 162.691L897.932 161.854C921.853 151.751 957.33 139.104 982.202 131.332Z"/><path fill="rgb(255,255,179)" d="M897.889 162.691C913.198 165.551 932.286 168.552 947.091 172.213L946.883 173.191L948.471 176.803C944.923 187.592 942.179 198.212 939.277 209.172L937.873 213.852C935.428 212.366 909.194 207.459 905.998 207.667L905.469 207.088L906.052 206.184C904.492 202.188 897.893 167.145 897.889 162.691Z"/><path fill="rgb(255,218,40)" d="M946.883 173.191L948.471 176.803C944.923 187.592 942.179 198.212 939.277 209.172L937.873 213.852C935.428 212.366 909.194 207.459 905.998 207.667L905.469 207.088L906.052 206.184C918.57 195.551 935.327 183.786 946.883 173.191Z"/><path fill="rgb(255,233,28)" d="M897.932 161.854C921.853 151.751 957.33 139.104 982.202 131.332C981.546 138.77 954.806 162.587 949.484 172.54L948.471 176.803L946.883 173.191L947.091 172.213C932.286 168.552 913.198 165.551 897.889 162.691Z"/><path fill="rgb(255,255,179)" d="M949.484 172.54C954.316 176.181 993.93 204.825 994.646 207.859L993.633 207.8C984.162 204.727 945.385 215.053 939.277 209.172C942.179 198.212 944.923 187.592 948.471 176.803Z"/><path fill="rgb(255,100,10)" d="M987.713 130.742C1003.27 135.593 1036.41 144.86 1049.9 150.316C1042.72 154.572 1028.49 160.661 1020.5 164.143C1013.05 158.179 992.927 138.206 987.713 130.742Z"/><path fill="rgb(192,1,51)" d="M1049.9 150.316L1051.18 150.625C1053.5 152.238 1056.42 154.044 1058.19 156.173C1072.27 167.722 1113.04 202.433 1124.24 214.423C1117.33 219.138 1111.28 223.658 1104.64 228.744L1101.94 225.576C1088.45 219.902 1059.08 196.015 1049.69 193.51L1049.32 194.047L1049.19 193.14C1046.29 188.23 1026.2 169.668 1020.5 164.143C1028.49 160.661 1042.72 154.572 1049.9 150.316Z"/><path fill="rgb(250,17,120)" d="M1058.19 156.173C1072.27 167.722 1113.04 202.433 1124.24 214.423C1117.33 219.138 1111.28 223.658 1104.64 228.744L1101.94 225.576C1090.3 206.548 1076.85 188.452 1064.6 169.802C1061.97 165.795 1057.56 161.09 1058.19 156.173Z"/><path fill="rgb(255,93,39)" d="M1049.9 150.316L1051.18 150.625C1050.57 164.916 1050.07 179.211 1049.69 193.51L1049.32 194.047L1049.19 193.14C1046.29 188.23 1026.2 169.668 1020.5 164.143C1028.49 160.661 1042.72 154.572 1049.9 150.316Z"/><path fill="rgb(118,1,101)" d="M1095.93 315.473C1099.5 315.292 1130.05 303.276 1137.6 301.111C1132.99 313.759 1113.97 353.155 1107.45 366.071L1105.36 370.605C1093.14 372.508 1062.16 386.987 1053.76 387.402C1061.26 369.145 1087.98 333.774 1092.99 318.698L1095.52 316.425Z"/><path fill="rgb(205,8,135)" d="M1095.93 315.473C1099.5 315.292 1130.05 303.276 1137.6 301.111C1132.99 313.759 1113.97 353.155 1107.45 366.071C1099.94 361.087 1099.69 324.102 1095.52 316.425Z"/><path fill="rgb(118,1,101)" d="M1124.24 214.423C1127.21 230.941 1129.74 248.131 1132.33 264.76C1133.51 272.37 1136.06 286.238 1136.49 293.248C1137.02 296.121 1137.34 298.154 1137.6 301.111C1130.05 303.276 1099.5 315.292 1095.93 315.473C1096.6 313.669 1096.74 310.95 1096.93 308.961C1096.93 299.162 1100.59 271.172 1101.52 259.988A818 818 0 0 0 1104.4 229.525L1104.64 228.744C1111.28 223.658 1117.33 219.138 1124.24 214.423Z"/><path fill="rgb(205,8,135)" d="M1124.24 214.423C1127.21 230.941 1129.74 248.131 1132.33 264.76C1133.51 272.37 1136.06 286.238 1136.49 293.248L1135.89 294.404C1132.49 292.555 1119.88 263.323 1117.43 257.947C1116.33 254.029 1106.75 232.509 1104.4 229.525L1104.64 228.744C1111.28 223.658 1117.33 219.138 1124.24 214.423Z"/><path fill="rgb(232,1,69)" d="M1014.49 362.68C1016.27 362.421 1020.84 359.474 1022.65 358.409C1024.8 368.849 1039.29 437.132 1036.71 440.948C1037.46 443.887 1036.88 443.423 1038.87 445.083L1038.4 445.875Q1020.805 446.119 1003.21 445.891C1004.94 433.638 1005.58 418.916 1007.24 405.765C1007.23 397.525 1012.52 371.254 1014.49 362.68Z"/><path fill="rgb(255,10,66)" d="M1007.24 405.765C1012.04 409.03 1033.06 435.423 1036.71 440.948C1037.46 443.887 1036.88 443.423 1038.87 445.083L1038.4 445.875Q1020.805 446.119 1003.21 445.891C1004.94 433.638 1005.58 418.916 1007.24 405.765Z"/><path fill="rgb(255,144,18)" d="M996.235 208.482C1005.63 220.047 1027.8 251.833 1036.89 260.014L1035.32 267.378C1034.52 267.164 1031.06 266.321 1030.51 266.399C1023.42 267.393 1009.66 279.944 1004.66 284.267L987.479 264.31C989.634 261.68 994.748 216.152 995.107 209.87Z"/><path fill="rgb(255,100,10)" d="M1049.19 193.14L1049.32 194.047A2220 2220 0 0 1 1037.37 259.312L1036.89 260.014C1027.8 251.833 1005.63 220.047 996.235 208.482C998.869 204.972 1042.53 194.867 1049.19 193.14Z"/><path fill="rgb(232,1,69)" d="M1023.75 357.72C1043.12 346.612 1073.46 327.611 1092.99 318.698C1087.98 333.774 1061.26 369.145 1053.76 387.402L1053.1 387.771A1149 1149 0 0 1 1023.75 357.72Z"/><path fill="rgb(92,3,120)" d="M1053.76 387.402C1062.16 386.987 1093.14 372.508 1105.36 370.605C1090.77 393.641 1075.56 423.641 1061.61 444.686C1057.7 432.493 1057.22 398.436 1052.46 390.079L1053.1 387.771Z"/><path fill="rgb(232,1,69)" d="M1075.94 254.055C1078.01 259.243 1080.05 264.21 1081.83 269.414C1084.7 277.833 1090.88 304.126 1095.19 310.302L1096.93 308.961C1096.74 310.95 1096.6 313.669 1095.93 315.473C1082.51 302.656 1065.26 287.09 1052.96 273.986C1059.05 267.292 1068.71 259.849 1075.94 254.055Z"/><path fill="rgb(255,100,10)" d="M1036.89 260.014L1037.37 259.312C1038.99 263.344 1048.48 270.892 1052.27 273.922C1041.99 296.395 1029.66 322.077 1020.1 344.511L1018.58 343.813C1019.25 337.92 1022.98 322.465 1024.54 315.655C1028.1 300.032 1031.21 282.635 1035.32 267.378Z"/><path fill="rgb(48,2,108)" d="M1052.46 390.079C1057.22 398.436 1057.7 432.493 1061.61 444.686L1061.47 445.659C1055.57 445.554 1044.55 446.328 1039.6 445.031C1042.12 429.864 1048.72 406.146 1052.46 390.079Z"/><path fill="rgb(255,60,43)" d="M1014.49 362.68L1018.58 343.813L1020.1 344.511C1018.16 354.826 1023.36 353.735 1022.65 358.409C1020.84 359.474 1016.27 362.421 1014.49 362.68Z"/><path fill="rgb(255,144,18)" d="M939.277 209.172C945.385 215.053 984.162 204.727 993.633 207.8L994.646 207.859L995.107 209.87C994.748 216.152 989.634 261.68 987.479 264.31C981.024 270.21 975.558 277.263 969.409 283.579C962.687 278.041 951.287 267.179 942.937 266.614L940.457 267.734C939.735 285.171 951.179 328.364 951.299 348.82C952.144 352.625 952.753 355.959 953.369 359.807L960.255 404.44C960.79 409.681 961.254 415.311 961.934 420.5C962.291 428.363 963.203 438.361 963.167 445.931L943.499 446.03C939.046 446.111 925.075 446.769 921.753 445.132L921.643 441.176L921.393 441.301L921.204 444.961C918.897 446.513 918.523 445.993 915.422 445.939C903.663 422.97 888.16 398.957 874.388 376.875L870.672 369.901C862.678 353.123 845.223 320.247 839.451 304.596L839.578 303.178C840.085 288.147 844.832 270.151 846.142 254.88C846.7 248.387 848.015 239.729 849.233 233.372L849.461 232.415C862.828 238.798 878.607 248.392 891.7 255.962C895.398 253.304 904.063 217.249 905.987 210.03L905.998 207.667C909.194 207.459 935.428 212.366 937.873 213.852Z"/><path fill="rgb(255,144,18)" d="M839.451 304.596C849.828 308.855 861.254 315.509 871.021 318.651L871.703 318.883L872.949 321.772L873.789 322.019C882.817 324.724 895.892 332.491 905.01 336.757L907.059 338.048C920.522 344.863 938.747 355.976 951.494 361.438L953.369 359.807L960.255 404.44C960.79 409.681 961.254 415.311 961.934 420.5C962.291 428.363 963.203 438.361 963.167 445.931L943.499 446.03C939.046 446.111 925.075 446.769 921.753 445.132L921.643 441.176L921.393 441.301L921.204 444.961C918.897 446.513 918.523 445.993 915.422 445.939C903.663 422.97 888.16 398.957 874.388 376.875L870.672 369.901C862.678 353.123 845.223 320.247 839.451 304.596Z"/><path fill="rgb(3,121,254)" d="M839.451 304.596C849.828 308.855 861.254 315.509 871.021 318.651L871.703 318.883L872.949 321.772L873.789 322.019C882.817 324.724 895.892 332.491 905.01 336.757L907.059 338.048C905.356 343.166 915.793 369.528 916.707 376.897C917.262 381.369 917.339 382.901 917.2 387.629L914.935 384.722C907.174 388.002 888.545 376.314 874.388 376.875L870.672 369.901C862.678 353.123 845.223 320.247 839.451 304.596Z"/><path fill="rgb(33,164,254)" d="M839.451 304.596C849.828 308.855 861.254 315.509 871.021 318.651L871.703 318.883L872.949 321.772C868.958 332.622 876.938 360.926 870.672 369.901C862.678 353.123 845.223 320.247 839.451 304.596Z"/><path fill="rgb(255,100,10)" d="M873.789 322.019C882.817 324.724 895.892 332.491 905.01 336.757L907.059 338.048C905.356 343.166 915.793 369.528 916.707 376.897C917.262 381.369 917.339 382.901 917.2 387.629L914.935 384.722A6628 6628 0 0 0 873.789 322.019Z"/><path fill="rgb(30,89,243)" d="M874.388 376.875C888.545 376.314 907.174 388.002 914.935 384.722L917.2 387.629L917.284 388.918C924.034 393.332 929.391 405.565 933.686 409.315C932.63 412.498 921.791 440.174 921.643 441.176L921.393 441.301L921.204 444.961C918.897 446.513 918.523 445.993 915.422 445.939C903.663 422.97 888.16 398.957 874.388 376.875Z"/><path fill="rgb(255,100,10)" d="M917.284 388.918C924.034 393.332 929.391 405.565 933.686 409.315C932.63 412.498 921.791 440.174 921.643 441.176L921.393 441.301C920.2 423.82 918.422 406.387 917.284 388.918Z"/><path fill="rgb(255,93,39)" d="M917.2 387.629C917.339 382.901 917.262 381.369 916.707 376.897C915.793 369.528 905.356 343.166 907.059 338.048C920.522 344.863 938.747 355.976 951.494 361.438C951.424 366.47 936.367 402.162 933.686 409.315C929.391 405.565 924.034 393.332 917.284 388.918ZM929.219 437.785C936.16 438.994 953.522 424.25 961.934 420.5C962.291 428.363 963.203 438.361 963.167 445.931L943.499 446.03C939.046 446.111 925.075 446.769 921.753 445.132C923.145 443.272 927.343 439.534 929.219 437.785Z"/><path fill="rgb(255,60,43)" d="M960.255 404.44C960.79 409.681 961.254 415.311 961.934 420.5C953.522 424.25 936.16 438.994 929.219 437.785C939.124 426.388 949.16 414.666 960.255 404.44Z"/><path fill="rgb(255,218,40)" d="M939.277 209.172C945.385 215.053 984.162 204.727 993.633 207.8L994.646 207.859L995.107 209.87C994.748 216.152 989.634 261.68 987.479 264.31C981.024 270.21 975.558 277.263 969.409 283.579C962.687 278.041 951.287 267.179 942.937 266.614L940.457 267.734C939.735 285.171 951.179 328.364 951.299 348.82C951.128 348.755 950.952 348.701 950.785 348.626C946.32 346.628 925.534 281.969 922.838 273.952L921.745 273.387C913.186 268.104 902.071 262.107 893.2 257.032L891.7 255.962C895.398 253.304 904.063 217.249 905.987 210.03L905.998 207.667C909.194 207.459 935.428 212.366 937.873 213.852Z"/><path fill="rgb(255,183,3)" d="M905.998 207.667C909.194 207.459 935.428 212.366 937.873 213.852C932.943 231.665 927.598 250.126 923.625 268.108L923.007 272.811L922.838 273.952L921.745 273.387C913.186 268.104 902.071 262.107 893.2 257.032L891.7 255.962C895.398 253.304 904.063 217.249 905.987 210.03Z"/><path fill="rgb(255,218,40)" d="M891.7 255.962C895.398 253.304 904.063 217.249 905.987 210.03C909.378 220.09 917.011 263.571 923.305 267.878Q923.467 267.991 923.625 268.108L923.007 272.811L922.838 273.952L921.745 273.387C913.186 268.104 902.071 262.107 893.2 257.032Z"/><path fill="rgb(255,254,98)" d="M939.277 209.172C945.385 215.053 984.162 204.727 993.633 207.8C991.346 210.733 989.072 213.083 986.356 215.606C965.579 234.906 945.021 254.908 923.007 272.811L923.625 268.108C927.598 250.126 932.943 231.665 937.873 213.852Z"/><path fill="rgb(255,218,40)" d="M849.461 232.415C862.828 238.798 878.607 248.392 891.7 255.962L893.2 257.032C888.564 263.59 888.356 287.498 885.653 296.093L888.95 302.235L888.781 303.042A2204 2204 0 0 1 871.703 318.883L871.021 318.651C861.254 315.509 849.828 308.855 839.451 304.596L839.578 303.178C840.085 288.147 844.832 270.151 846.142 254.88C846.7 248.387 848.015 239.729 849.233 233.372Z"/><path fill="rgb(255,144,18)" d="M849.461 232.415C862.828 238.798 878.607 248.392 891.7 255.962L893.2 257.032C888.564 263.59 888.356 287.498 885.653 296.093C878.539 285.159 856.082 241.677 850.959 236.585L849.233 233.372Z"/><path fill="rgb(152,250,254)" d="M849.233 233.372L850.959 236.585C854.355 250.361 857.97 264.404 861.146 278.205C856.482 284.148 844.939 299.235 839.578 303.178C840.085 288.147 844.832 270.151 846.142 254.88C846.7 248.387 848.015 239.729 849.233 233.372Z"/><path fill="rgb(90,228,254)" d="M861.146 278.205C864.628 291.392 868.533 305.293 871.021 318.651C861.254 315.509 849.828 308.855 839.451 304.596L839.578 303.178C844.939 299.235 856.482 284.148 861.146 278.205Z"/><path fill="rgb(255,100,10)" d="M885.653 296.093C888.356 287.498 888.564 263.59 893.2 257.032C902.071 262.107 913.186 268.104 921.745 273.387C917.918 277.773 893.973 299.147 888.95 302.235Z"/><path fill="rgb(255,165,38)" d="M888.781 303.042C892.709 310.061 904.663 328.8 905.623 335.231L905.01 336.757C895.892 332.491 882.817 324.724 873.789 322.019L872.949 321.772L871.703 318.883A2204 2204 0 0 0 888.781 303.042Z"/><path fill="rgb(3,121,254)" d="M1831.96 320.169C1832.05 313.203 1837.99 237.918 1838.85 236.214C1844.61 242.009 1876.11 276.538 1879.71 278.195L1879.61 278.971L1881.97 281.282C1888.57 281.141 1901.62 287.863 1908.72 289.997C1912.13 292.658 1931.56 300.602 1936.8 302.868C1957.8 311.883 1978.67 321.204 1999.39 330.827C2005.04 333.464 2019.75 339.978 2024.31 342.75C2029.63 348.319 2042.71 399.123 2048 410.252L2048 412.235C2036.78 408.471 2012.46 396.342 2000.74 390.828L2000.18 391.014L1999.7 390.213L1996.72 388.588C1987.72 394.887 1978.16 400.566 1968.77 406.297L1967.03 404.622C1938.96 393.709 1908.46 382.001 1880.15 371.883C1864.98 366.211 1846.07 337.388 1834.35 324.219C1832.68 323.125 1832.56 322.086 1831.96 320.169Z"/><path fill="rgb(33,164,254)" d="M1831.96 320.169C1832.05 313.203 1837.99 237.918 1838.85 236.214C1844.61 242.009 1876.11 276.538 1879.71 278.195L1879.61 278.971L1881.97 281.282C1900.27 304.233 1920.37 330.875 1938.97 353.051L1875.39 333.76C1867.15 331.249 1840.77 321.759 1834.35 324.219C1832.68 323.125 1832.56 322.086 1831.96 320.169Z"/><path fill="rgb(90,228,254)" d="M1831.96 320.169C1832.05 313.203 1837.99 237.918 1838.85 236.214C1844.61 242.009 1876.11 276.538 1879.71 278.195L1879.61 278.971C1867.07 288.216 1840.78 315.405 1831.96 320.169Z"/><path fill="rgb(37,50,189)" d="M2023.65 343.792C2023.99 350.36 2013.55 363.029 2011.04 368.795C2008.82 373.004 2000.74 387.171 2000.74 390.828L2000.18 391.014L1999.7 390.213L1996.72 388.588C1987.72 394.887 1978.16 400.566 1968.77 406.297L1967.03 404.622C1966.47 399.864 1944.99 363.411 1941.14 356.391L1938.48 353.15C1959.56 349.01 2001.16 345.902 2023.65 343.792Z"/><path fill="rgb(15,39,156)" d="M1941.14 356.391C1947.9 357.297 1975.23 375.248 1982.73 379.391A601 601 0 0 1 1996.72 388.588C1987.72 394.887 1978.16 400.566 1968.77 406.297L1967.03 404.622C1966.47 399.864 1944.99 363.411 1941.14 356.391Z"/><path fill="rgb(30,89,243)" d="M1982.73 379.391C1989.49 375.73 2003.31 371.395 2011.04 368.795C2008.82 373.004 2000.74 387.171 2000.74 390.828L2000.18 391.014L1999.7 390.213L1996.72 388.588A601 601 0 0 0 1982.73 379.391ZM1880.15 371.883L1880.3 371.645C1886.19 362.743 1926.49 355.986 1938.48 353.15L1941.14 356.391C1944.99 363.411 1966.47 399.864 1967.03 404.622C1938.96 393.709 1908.46 382.001 1880.15 371.883Z"/><path fill="url(#e)" d="M1996.72 388.588L1999.7 390.213L2000.18 391.014L2000.74 390.828C2012.46 396.342 2036.78 408.471 2048 412.235L2048 417.319L2046.54 418.007C2041.3 438.192 2034.09 464.455 2027.49 484.23C2015.76 492.262 1995.82 505.985 1982.62 509.906C1974.95 512.185 1908.21 512.101 1897.71 510.847C1877.43 501.126 1850.66 486.355 1831.14 475.09C1843.68 456.01 1855.56 438.058 1869.21 419.766C1890.88 428.336 1913.14 439.644 1934.64 447.866L1941.18 446.239L1962.33 440.712C1966.85 435.752 1972.52 426.881 1976.46 421.055C1974.9 415.888 1971.59 410.944 1968.77 406.297C1978.16 400.566 1987.72 394.887 1996.72 388.588Z"/><path fill="rgb(25,109,251)" d="M1996.72 388.588L1999.7 390.213L2000.18 391.014L2000.74 390.828C2012.46 396.342 2036.78 408.471 2048 412.235L2048 417.319L2046.54 418.007C2041.3 438.192 2034.09 464.455 2027.49 484.23C2015.76 492.262 1995.82 505.985 1982.62 509.906C1974.95 512.185 1908.21 512.101 1897.71 510.847L1900.97 510.41C1912.54 507.119 1924.59 504.4 1936.31 501.605C1944.02 500.86 1999.55 467.997 2009.67 462.198L2010.11 459.845C2006.97 455.119 1981.06 424.786 1976.86 420.893L1976.46 421.055C1974.9 415.888 1971.59 410.944 1968.77 406.297C1978.16 400.566 1987.72 394.887 1996.72 388.588Z"/><path fill="rgb(27,64,217)" d="M1996.72 388.588L1999.7 390.213L2000.18 391.014L2000.74 390.828C2012.46 396.342 2036.78 408.471 2048 412.235L2048 417.319L2046.54 418.007C2041.06 418.647 2014.77 453.46 2010.11 459.845C2006.97 455.119 1981.06 424.786 1976.86 420.893L1976.46 421.055C1974.9 415.888 1971.59 410.944 1968.77 406.297C1978.16 400.566 1987.72 394.887 1996.72 388.588Z"/><path fill="rgb(37,50,189)" d="M1996.72 388.588L1999.7 390.213L2000.18 391.014C2002.1 403.279 2010.53 449.033 2010.11 459.845C2006.97 455.119 1981.06 424.786 1976.86 420.893L1976.46 421.055C1974.9 415.888 1971.59 410.944 1968.77 406.297C1978.16 400.566 1987.72 394.887 1996.72 388.588Z"/><path fill="rgb(0,5,68)" d="M1996.72 388.588L1999.7 390.213C1997.1 397.024 1982.16 416.432 1976.86 420.893L1976.46 421.055C1974.9 415.888 1971.59 410.944 1968.77 406.297C1978.16 400.566 1987.72 394.887 1996.72 388.588Z"/><path fill="rgb(152,250,254)" d="M1869.21 419.766C1882.93 438.706 1900.34 456.521 1913.99 474.909C1917.41 478.798 1936.48 498.497 1936.31 501.605C1924.59 504.4 1912.54 507.119 1900.97 510.41L1897.71 510.847C1877.43 501.126 1850.66 486.355 1831.14 475.09C1843.68 456.01 1855.56 438.058 1869.21 419.766Z"/><path fill="rgb(56,209,254)" d="M1831.14 475.09L1885.91 474.975C1893.44 474.982 1907.09 475.481 1913.99 474.909C1917.41 478.798 1936.48 498.497 1936.31 501.605C1924.59 504.4 1912.54 507.119 1900.97 510.41L1897.71 510.847C1877.43 501.126 1850.66 486.355 1831.14 475.09Z"/><path fill="rgb(25,109,251)" d="M1976.86 420.893C1981.06 424.786 2006.97 455.119 2010.11 459.845L2009.67 462.198C1991.17 457.702 1972.12 458.863 1950.98 452.145C1943.11 450.754 1946.07 449.678 1941.6 446.532L1941.18 446.239L1962.33 440.712C1966.85 435.752 1972.52 426.881 1976.46 421.055Z"/><path fill="rgb(3,121,254)" d="M1934.64 447.866L1941.18 446.239L1941.6 446.532C1946.07 449.678 1943.11 450.754 1950.98 452.145C1948.08 452.812 1922.31 469.562 1917.69 472.398C1922.22 464.915 1929.29 454.464 1934.64 447.866Z"/><path fill="rgb(90,228,254)" d="M1894.68 189.786C1910.72 189.085 1972.47 186.65 1984.03 192.019C2000.64 199.728 2015.37 211.755 2031.9 219.565C2033.71 224.496 2006.85 270.395 2002.87 280.268C2001.14 280.866 1935.35 259.635 1929.05 257.584C1925.17 259.161 1923.45 259.726 1919.37 260.661C1914.51 263.067 1912.04 264.083 1906.89 265.777L1908.72 289.997C1901.62 287.863 1888.57 281.141 1881.97 281.282L1879.61 278.971L1879.71 278.195C1876.11 276.538 1844.61 242.009 1838.85 236.214C1855.09 222.497 1874.84 202.948 1891.62 190.809C1892.1 190.443 1893.97 189.988 1894.68 189.786Z"/><path fill="rgb(208,241,253)" d="M1894.68 189.786C1910.72 189.085 1972.47 186.65 1984.03 192.019C2000.64 199.728 2015.37 211.755 2031.9 219.565C2033.71 224.496 2006.85 270.395 2002.87 280.268A2446 2446 0 0 0 1972.23 238.2L1971.24 238.017C1969.32 235.973 1958.64 229.805 1955.6 227.711C1937.71 215.39 1911.4 202.666 1894.68 189.786Z"/><path fill="rgb(90,228,254)" d="M2031.9 219.565C2033.71 224.496 2006.85 270.395 2002.87 280.268A2446 2446 0 0 0 1972.23 238.2C1985.18 233.589 2023.02 224.004 2031.9 219.565Z"/><path fill="rgb(152,250,254)" d="M1891.62 190.809C1893.2 203.327 1890.17 242.442 1889.65 257.481L1879.71 278.195C1876.11 276.538 1844.61 242.009 1838.85 236.214C1855.09 222.497 1874.84 202.948 1891.62 190.809Z"/><path fill="rgb(33,164,254)" d="M1971.24 238.017L1972.23 238.2A2446 2446 0 0 1 2002.87 280.268C2001.14 280.866 1935.35 259.635 1929.05 257.584C1925.17 259.161 1923.45 259.726 1919.37 260.661C1914.51 263.067 1912.04 264.083 1906.89 265.777L1908.72 289.997C1901.62 287.863 1888.57 281.141 1881.97 281.282L1879.61 278.971L1879.71 278.195L1889.65 257.481C1895.45 256.765 1904.89 254.638 1910.85 253.46C1924.21 248.201 1954.03 243.909 1971.24 238.017Z"/><path fill="rgb(0,5,68)" d="M972.453 445.242L972.964 445.455C977.839 446.419 989.275 446.017 994.77 445.959L1003.21 445.891Q1020.805 446.119 1038.4 445.875L1042.78 458.164L1039.05 459.433C1037.45 465.205 1033.09 473.311 1030.32 478.895L1030.87 479.08C1039.48 478.803 1048.35 478.629 1056.93 478.206L1063.61 495.269C1063.64 498.71 1056.35 505.89 1053.98 509.966C1055.38 514.671 1058.3 523.447 1058.71 528.001L1057.41 529.448C1046.76 537.962 1029.34 552.709 1018.54 559.828L1015.73 563L962.661 563L959.899 560.697C962.693 554.457 955.113 538.56 954.502 529.33L954.266 527.877L953.233 527.687L953.229 526.974C955.742 521.227 957.067 516.063 958.534 510.027L959.235 509.654C959.102 507.316 955.95 500.881 954.201 498.885C951.359 495.641 950.959 496.312 946.953 495.888C949.746 491.833 950.971 490.276 954.413 486.767L954.97 480.708C955.931 480.622 956.908 480.168 957.844 479.823L955.644 475.967C953.019 470.153 949.979 461.619 947.575 455.492L943.499 446.03L963.167 445.931L963.834 446.111C967.259 446.08 969.13 445.776 972.453 445.242Z"/><path fill="rgb(37,50,189)" d="M972.453 445.242L972.964 445.455C977.839 446.419 989.275 446.017 994.77 445.959L1003.21 445.891Q1020.805 446.119 1038.4 445.875L1042.78 458.164L1039.05 459.433C1037.45 465.205 1033.09 473.311 1030.32 478.895C1025.16 478.608 1020.09 478.84 1014.93 479.003C1012.52 486.341 1006.04 488.838 1005.12 493.674C999.639 493.512 966.5 481.823 959.907 479.659L957.844 479.823L955.644 475.967C953.019 470.153 949.979 461.619 947.575 455.492L943.499 446.03L963.167 445.931L963.834 446.111C967.259 446.08 969.13 445.776 972.453 445.242Z"/><path fill="rgb(0,5,68)" d="M1039.05 459.433C1037.45 465.205 1033.09 473.311 1030.32 478.895C1025.16 478.608 1020.09 478.84 1014.93 479.003C1012.52 486.341 1006.04 488.838 1005.12 493.674C999.639 493.512 966.5 481.823 959.907 479.659L959.87 478.122L965.302 476.104C994.99 469.291 1005.1 463.767 1039.05 459.433Z"/><path fill="rgb(27,64,217)" d="M959.907 479.659L959.87 478.122C969.761 479.729 1003.98 479.037 1014.93 479.003C1012.52 486.341 1006.04 488.838 1005.12 493.674C999.639 493.512 966.5 481.823 959.907 479.659Z"/><path fill="rgb(30,89,243)" d="M963.167 445.931L963.834 446.111C966.405 446.594 968.379 446.427 969.706 448.122C966.653 457.806 965.935 466.078 965.302 476.104L959.87 478.122L959.907 479.659L957.844 479.823L955.644 475.967C953.019 470.153 949.979 461.619 947.575 455.492L943.499 446.03Z"/><path fill="rgb(0,5,68)" d="M1030.87 479.08C1039.48 478.803 1048.35 478.629 1056.93 478.206L1063.61 495.269C1063.64 498.71 1056.35 505.89 1053.98 509.966C1046.76 510.279 1037.27 509.903 1029.89 509.816C1023.18 509.693 982.159 509.271 977.562 510.91L972.363 509.54C967.555 509.935 964.068 509.822 959.235 509.654C959.102 507.316 955.95 500.881 954.201 498.885C951.359 495.641 950.959 496.312 946.953 495.888C949.746 491.833 950.971 490.276 954.413 486.767L954.97 480.708C955.931 480.622 956.908 480.168 957.844 479.823L959.907 479.659C966.5 481.823 999.639 493.512 1005.12 493.674C1006.04 488.838 1012.52 486.341 1014.93 479.003C1020.09 478.84 1025.16 478.608 1030.32 478.895Z"/><path fill="rgb(90,228,254)" d="M957.844 479.823L959.907 479.659C966.5 481.823 999.639 493.512 1005.12 493.674L1008.44 496.041C1005.54 495.843 1001.15 495.94 998.124 495.911C992.71 499.005 965.664 508.069 965.485 508.233C968.805 510.726 968.369 508.255 972.363 509.54C967.555 509.935 964.068 509.822 959.235 509.654C959.102 507.316 955.95 500.881 954.201 498.885C951.359 495.641 950.959 496.312 946.953 495.888C949.746 491.833 950.971 490.276 954.413 486.767L954.97 480.708C955.931 480.622 956.908 480.168 957.844 479.823Z"/><path fill="rgb(37,50,189)" d="M946.953 495.888C949.746 491.833 950.971 490.276 954.413 486.767C954.069 489.722 953.124 493.22 954.18 495.533C963.93 496.645 987.331 495.967 998.124 495.911C992.71 499.005 965.664 508.069 965.485 508.233C968.805 510.726 968.369 508.255 972.363 509.54C967.555 509.935 964.068 509.822 959.235 509.654C959.102 507.316 955.95 500.881 954.201 498.885C951.359 495.641 950.959 496.312 946.953 495.888Z"/><path fill="rgb(94,16,154)" d="M1030.87 479.08C1039.48 478.803 1048.35 478.629 1056.93 478.206L1063.61 495.269C1063.64 498.71 1056.35 505.89 1053.98 509.966C1046.76 510.279 1037.27 509.903 1029.89 509.816C1031.31 506.797 1036.5 498.993 1038.5 495.81Z"/><path fill="rgb(48,2,108)" d="M1063.61 495.269C1063.64 498.71 1056.35 505.89 1053.98 509.966C1046.76 510.279 1037.27 509.903 1029.89 509.816C1031.31 506.797 1036.5 498.993 1038.5 495.81C1043.42 495.984 1060.36 496.979 1063.61 495.269Z"/><path fill="rgb(37,50,189)" d="M1014.93 479.003C1020.09 478.84 1025.16 478.608 1030.32 478.895L1030.87 479.08L1038.5 495.81L1008.44 496.041L1005.12 493.674C1006.04 488.838 1012.52 486.341 1014.93 479.003Z"/><path fill="rgb(30,89,243)" d="M977.562 510.91C982.159 509.271 1023.18 509.693 1029.89 509.816C1031.1 513.864 1033.82 521.969 1034.02 525.837L1031.51 526.39L1032.49 527.981C1025.47 527.279 1012.67 527.665 1005.32 527.68L954.266 527.877L953.233 527.687L953.229 526.974C955.742 521.227 957.067 516.063 958.534 510.027L959.235 509.654C964.068 509.822 967.555 509.935 972.363 509.54Z"/><path fill="rgb(48,2,108)" d="M977.562 510.91C982.159 509.271 1023.18 509.693 1029.89 509.816C1031.1 513.864 1033.82 521.969 1034.02 525.837L1031.51 526.39C1020.74 522.202 990.508 514.872 977.562 510.91Z"/><path fill="rgb(37,50,189)" d="M954.502 529.33C966.159 540.441 974.278 549.21 984.944 561.622C990.49 561.585 1011.13 560.768 1014.99 563L962.661 563L959.899 560.697C962.693 554.457 955.113 538.56 954.502 529.33Z"/><path fill="rgb(94,16,154)" d="M1029.89 509.816C1037.27 509.903 1046.76 510.279 1053.98 509.966C1055.38 514.671 1058.3 523.447 1058.71 528.001L1057.41 529.448C1051.37 525.66 1041.23 530.59 1034.02 525.837C1033.82 521.969 1031.1 513.864 1029.89 509.816Z"/><path fill="rgb(48,2,108)" d="M1031.51 526.39L1034.02 525.837C1041.23 530.59 1051.37 525.66 1057.41 529.448C1046.76 537.962 1029.34 552.709 1018.54 559.828C1018.04 556.629 1031.05 535.212 1033.49 529.762L1032.49 527.981Z"/><path fill="rgb(192,1,51)" d="M63.844 306.963C69.823 307.786 92.014 306.069 93.625 306.713Q154.761 306.81 215.892 306.201L217.889 306.973C218.636 325.208 213.793 357.897 213.073 377.958L156.881 377.957L93.847 377.914C92.551 371.747 92.086 361.618 91.142 354.721L90.597 354.243C83.971 340.716 71.613 320.585 63.844 306.963Z"/><path fill="rgb(255,100,10)" d="M63.844 306.963C69.823 307.786 92.014 306.069 93.625 306.713Q154.761 306.81 215.892 306.201L213.156 308.801C174.316 322.827 129.332 339.249 91.142 354.721L90.597 354.243C83.971 340.716 71.613 320.585 63.844 306.963Z"/><path fill="rgb(232,1,69)" d="M215.892 306.201L217.889 306.973C218.636 325.208 213.793 357.897 213.073 377.958L156.881 377.957L153.501 376.443C155.197 372.825 161.974 366.623 164.427 363.582C171.984 354.213 209.984 316.553 213.156 308.801Z"/><path fill="rgb(255,93,39)" d="M161.103 184.961C188.663 184.975 216.711 185.255 244.231 184.941C245.259 188.6 237.063 248.718 235.634 256.085C210.075 256.213 183.902 256.613 158.391 256.382C137.088 256.426 114.996 256.173 93.755 256.676L93.979 256.245L96.328 254.444C97.286 250.224 151.331 195.577 159.455 184.968Z"/><path fill="rgb(255,218,40)" d="M159.455 184.968L161.103 184.961C165.802 190.646 196.105 214.759 196.496 217.627L195.564 218.475C189.583 227.92 165.111 244.502 158.391 256.382C137.088 256.426 114.996 256.173 93.755 256.676L93.979 256.245L96.328 254.444C97.286 250.224 151.331 195.577 159.455 184.968Z"/><path fill="rgb(255,100,10)" d="M96.328 254.444C129.208 243.638 162.468 229.057 195.564 218.475C189.583 227.92 165.111 244.502 158.391 256.382C137.088 256.426 114.996 256.173 93.755 256.676L93.979 256.245Z"/><path fill="rgb(255,144,18)" d="M161.103 184.961C188.663 184.975 216.711 185.255 244.231 184.941C238.623 189.023 200.303 216.802 196.496 217.627C196.105 214.759 165.802 190.646 161.103 184.961Z"/><path fill="rgb(255,165,38)" d="M987.537 276.481C991.324 282.745 997.583 287.946 1000.96 294.551C1007.55 294.854 1015.77 284.987 1023.17 280.529C1019.39 296.805 1016.03 315.292 1011.84 331.026C1009.6 342.393 1006.85 359.155 1004.09 369.978C1002.6 377.172 1000.2 387.354 999.366 394.4C993.261 392.158 988.779 386.212 984.786 381.197L984.029 381.661C979.809 385.369 970.998 394.605 967.9 396.883L964.028 369.224L959.607 341.627C957.275 322.095 953.228 299.115 950.258 279.402C956.692 285.05 963.584 290.572 970.821 295.143C976.461 289.191 982.081 282.65 987.537 276.481Z"/><path fill="rgb(255,93,39)" d="M1023.17 280.529C1019.39 296.805 1016.03 315.292 1011.84 331.026C1009.6 342.393 1006.85 359.155 1004.09 369.978C1002.6 377.172 1000.2 387.354 999.366 394.4C993.261 392.158 988.779 386.212 984.786 381.197L984.951 380.257L985.081 377.35C990.479 350.863 995.208 324.219 1001.28 297.881C1001.11 297.221 1001.02 295.333 1000.96 294.551C1007.55 294.854 1015.77 284.987 1023.17 280.529Z"/><path fill="rgb(255,144,18)" d="M1023.17 280.529C1019.39 296.805 1016.03 315.292 1011.84 331.026C1009.18 327.43 1005.23 305.335 1003.36 298.743L1001.28 297.881C1001.11 297.221 1001.02 295.333 1000.96 294.551C1007.55 294.854 1015.77 284.987 1023.17 280.529Z"/><path fill="rgb(232,1,69)" d="M984.951 380.257C987.278 379.479 999.169 372.196 1004.09 369.978C1002.6 377.172 1000.2 387.354 999.366 394.4C993.261 392.158 988.779 386.212 984.786 381.197Z"/><path fill="rgb(255,183,3)" d="M959.607 341.627L962.835 342.837L963.586 345.747L965.322 346.108A242 242 0 0 0 970.931 341.291C974.018 350.449 979.885 369.733 985.081 377.35L984.951 380.257L984.786 381.197L984.029 381.661C979.809 385.369 970.998 394.605 967.9 396.883L964.028 369.224Z"/><path fill="rgb(255,100,10)" d="M964.028 369.224C969.772 371.944 980.551 379.17 984.951 380.257L984.786 381.197L984.029 381.661C979.809 385.369 970.998 394.605 967.9 396.883Z"/><path fill="rgb(255,218,40)" d="M950.258 279.402C956.692 285.05 963.584 290.572 970.821 295.143C970.956 302.883 965.476 335.304 962.835 342.837L959.607 341.627C957.275 322.095 953.228 299.115 950.258 279.402Z"/><path fill="rgb(255,254,98)" d="M897.932 161.854L897.889 162.691C897.893 167.145 904.492 202.188 906.052 206.184L905.469 207.088L905.998 207.667L905.987 210.03C904.063 217.249 895.398 253.304 891.7 255.962C878.607 248.392 862.828 238.798 849.461 232.415L850.459 230.772C856.058 221.691 892.233 166.694 897.932 161.854Z"/><path fill="rgb(255,233,28)" d="M850.459 230.772C855.56 230.562 896.576 210.491 905.469 207.088L905.998 207.667L905.987 210.03C904.063 217.249 895.398 253.304 891.7 255.962C878.607 248.392 862.828 238.798 849.461 232.415Z"/><path fill="rgb(33,164,254)" d="M921.393 441.301L921.643 441.176L921.753 445.132C925.075 446.769 939.046 446.111 943.499 446.03L947.575 455.492C949.979 461.619 953.019 470.153 955.644 475.967L957.844 479.823C956.908 480.168 955.931 480.622 954.97 480.708L954.413 486.767C950.971 490.276 949.746 491.833 946.953 495.888C950.959 496.312 951.359 495.641 954.201 498.885C955.95 500.881 959.102 507.316 959.235 509.654L958.534 510.027L956.333 510.185L925.08 509.993C922.852 507.248 914.301 497.773 914.282 494.895A1003 1003 0 0 0 921.38 479.003C918.413 473.977 911.794 465.482 908.246 460.318C910.732 455.791 913.133 450.614 915.422 445.939C918.523 445.993 918.897 446.513 921.204 444.961Z"/><path fill="rgb(25,109,251)" d="M914.282 494.895C918.307 494.28 921.855 493.653 925.583 491.978L927.445 493.163C932.782 497.397 939.638 496.065 946.953 495.888C950.959 496.312 951.359 495.641 954.201 498.885C955.95 500.881 959.102 507.316 959.235 509.654L958.534 510.027L956.333 510.185L925.08 509.993C922.852 507.248 914.301 497.773 914.282 494.895Z"/><path fill="rgb(90,228,254)" d="M921.393 441.301L921.643 441.176L921.753 445.132C925.075 446.769 939.046 446.111 943.499 446.03L947.575 455.492C946.657 459.904 947.516 458.875 944.439 461.555C938.496 463.224 934.493 461.876 930.406 464.091C924.076 460.808 915.408 460.814 908.246 460.318C910.732 455.791 913.133 450.614 915.422 445.939C918.523 445.993 918.897 446.513 921.204 444.961Z"/><path fill="rgb(208,241,253)" d="M950.547 479.145C952.769 479.361 953.235 479.322 954.97 480.708L954.413 486.767C950.971 490.276 949.746 491.833 946.953 495.888C939.638 496.065 932.782 497.397 927.445 493.163C927.435 491.816 927.961 491.084 928.577 489.877C934.185 485.998 943.807 479.529 950.547 479.145Z"/><path fill="rgb(152,250,254)" d="M921.38 479.003L950.547 479.145C943.807 479.529 934.185 485.998 928.577 489.877C927.961 491.084 927.435 491.816 927.445 493.163L925.583 491.978C921.855 493.653 918.307 494.28 914.282 494.895A1003 1003 0 0 0 921.38 479.003Z"/><path fill="rgb(56,209,254)" d="M947.575 455.492C949.979 461.619 953.019 470.153 955.644 475.967C953.816 475.82 933.925 465.727 930.406 464.091C934.493 461.876 938.496 463.224 944.439 461.555C947.516 458.875 946.657 459.904 947.575 455.492Z"/><path fill="rgb(255,10,66)" d="M984.786 381.197C988.779 386.212 993.261 392.158 999.366 394.4L994.77 445.959C989.275 446.017 977.839 446.419 972.964 445.455L972.453 445.242C971.39 429.326 969.512 412.81 967.9 396.883C970.998 394.605 979.809 385.369 984.029 381.661Z"/><path fill="rgb(255,60,43)" d="M967.9 396.883C970.998 394.605 979.809 385.369 984.029 381.661C984.197 393.085 987.557 443.075 972.964 445.455L972.453 445.242C971.39 429.326 969.512 412.81 967.9 396.883Z"/><path fill="rgb(255,218,40)" d="M972.937 0L1005.62 0L1004.64 1.33L992.674 67.25C991.341 75.041 989.762 86.155 987.897 93.585A366 366 0 0 1 983.811 69.776A2751 2751 0 0 0 973.547 2.426Z"/><path fill="rgb(255,144,18)" d="M989.184 0L1005.62 0L1004.64 1.33L992.674 67.25L990.775 66.338C987.261 58.464 988.728 38.042 988.667 28.213C988.69 24.165 988.485 19.842 989.757 16.029L989.966 15.278C988.531 10.929 989.058 4.713 989.184 0Z"/><path fill="rgb(255,218,40)" d="M989.184 0L1005.62 0L1004.64 1.33A415 415 0 0 0 989.966 15.278C988.531 10.929 989.058 4.713 989.184 0Z"/><path fill="rgb(255,183,3)" d="M983.811 69.776L986.288 72.877C989.753 68.871 986.121 34.773 988.667 28.213C988.728 38.043 987.261 58.463 990.775 66.338L992.674 67.251C991.341 75.041 989.762 86.155 987.897 93.585A366 366 0 0 1 983.811 69.776Z"/><path fill="rgb(255,233,28)" d="M972.937 0L989.184 0C989.058 4.713 988.531 10.93 989.966 15.278L989.757 16.029C984.581 14.594 982.003 6.665 973.547 2.426Z"/><path fill="rgb(56,209,254)" d="M925.08 509.993L956.333 510.185L958.534 510.027C957.067 516.063 955.742 521.227 953.229 526.974L953.233 527.687L954.266 527.877L954.502 529.33C955.113 538.56 962.693 554.457 959.899 560.697C947.761 551.638 930.234 537.996 918.955 528.262C920.919 520.041 921.788 517.88 925.08 509.993Z"/><path fill="rgb(30,89,243)" d="M953.233 527.687L954.266 527.877L954.502 529.33C955.113 538.56 962.693 554.457 959.899 560.697C947.761 551.638 930.234 537.996 918.955 528.262A1462 1462 0 0 0 953.233 527.687Z"/><path fill="rgb(90,228,254)" d="M956.333 510.185L958.534 510.027C957.067 516.063 955.742 521.227 953.229 526.974C945.576 526.517 932.592 527.041 924.535 527.101C931.576 521.891 947.877 510.474 956.333 510.185Z"/><path fill="rgb(48,2,108)" d="M1038.87 445.083L1039.6 445.031C1044.55 446.328 1055.57 445.554 1061.47 445.659C1063.04 449.139 1067.1 458.014 1067.9 461.319C1063.65 466.285 1060.26 472.537 1056.93 478.206C1048.35 478.629 1039.48 478.803 1030.87 479.08L1030.32 478.895C1033.09 473.311 1037.45 465.205 1039.05 459.433L1042.78 458.164L1038.4 445.875Z"/><path fill="rgb(94,16,154)" d="M1038.87 445.083L1039.6 445.031C1044.55 446.328 1055.57 445.554 1061.47 445.659C1063.04 449.139 1067.1 458.014 1067.9 461.319C1061.6 459 1052.27 461.333 1042.78 458.164L1038.4 445.875Z"/></svg>