<?xml version="1.0" encoding="utf-8"?>
<svg xmlns="http://www.w3.org/2000/svg" viewBox="-283.035 650.504 1326.509 250.859" style="shape-rendering: geometricprecision;" xmlns:bx="https://boxy-svg.com" width="1326.509px" height="250.859px"><defs/><g transform="matrix(1, 0, 0, 1, -389.475494, 284.958832)"><path style="opacity:1" fill="#f32435" d="M 745.5,368.5 C 753.99,369.33 762.657,369.83 771.5,370C 769.744,370.202 768.078,370.702 766.5,371.5C 770.907,372.991 775.24,373.657 779.5,373.5C 764.672,374.167 750.006,374.833 735.5,375.5C 722.167,388.167 709.167,401.167 696.5,414.5C 695.67,423.658 695.17,432.991 695,442.5C 695.064,437.53 694.064,432.864 692,428.5C 691.667,430.5 691.333,432.5 691,434.5C 690.5,426.841 690.334,419.174 690.5,411.5C 703.604,397.447 716.938,383.614 730.5,370C 735.372,368.612 740.372,368.112 745.5,368.5 Z"/></g><g transform="matrix(1, 0, 0, 1, -389.475494, 284.958832)"><path style="opacity:1" fill="#ec2259" d="M 745.5,368.5 C 764.503,368.333 783.503,368.5 802.5,369C 812.036,378.368 821.369,387.868 830.5,397.5C 828.955,400.767 826.622,401.434 823.5,399.5C 815.368,391.869 807.368,384.036 799.5,376C 778.169,375.5 756.836,375.333 735.5,375.5C 750.006,374.833 764.672,374.167 779.5,373.5C 775.24,373.657 770.907,372.991 766.5,371.5C 768.078,370.702 769.744,370.202 771.5,370C 762.657,369.83 753.99,369.33 745.5,368.5 Z"/></g><g transform="matrix(1, 0, 0, 1, -389.475494, 284.958832)"><path style="opacity:1" fill="#e61163" d="M 830.5,397.5 C 835.562,401.559 839.895,406.226 843.5,411.5C 843.666,420.839 843.5,430.173 843,439.5C 842.333,438.833 841.667,438.167 841,437.5C 840.333,440.833 839.667,444.167 839,447.5C 838.83,436.326 838.33,425.326 837.5,414.5C 832.833,409.5 828.167,404.5 823.5,399.5C 826.622,401.434 828.955,400.767 830.5,397.5 Z"/></g><g transform="matrix(1, 0, 0, 1, -389.475494, 284.958832)"><path style="opacity:1" fill="#f43e29" d="M 406.5,432.5 C 404.882,433.451 403.549,434.784 402.5,436.5C 367.002,437.167 331.669,437.833 296.5,438.5C 295.167,438.5 293.833,438.5 292.5,438.5C 292.334,444.176 292.501,449.843 293,455.5C 296.5,459 300,462.5 303.5,466C 334.498,466.5 365.498,466.667 396.5,466.5C 393.972,467.166 391.306,467.832 388.5,468.5C 388.709,469.086 389.043,469.586 389.5,470C 386.906,471.601 384.239,471.767 381.5,470.5C 383.369,469.376 385.369,468.543 387.5,468C 373.167,467.333 358.833,467.333 344.5,468C 349.042,468.097 353.709,468.763 358.5,470C 355.749,470.943 353.083,471.776 350.5,472.5C 333.497,472.667 316.497,472.5 299.5,472C 295.333,467.833 291.167,463.667 287,459.5C 286.333,450.833 286.333,442.167 287,433.5C 287.5,433 288,432.5 288.5,432C 328.002,431.169 367.335,431.335 406.5,432.5 Z"/></g><g transform="matrix(1, 0, 0, 1, -389.475494, 284.958832)"><path style="opacity:1" fill="#267cf8" d="M 1334.5,432.5 C 1362.17,431.167 1389.83,431.167 1417.5,432.5C 1414.78,433.913 1411.78,434.58 1408.5,434.5C 1408.5,435.5 1408.5,436.5 1408.5,437.5C 1403.17,437.5 1397.83,437.5 1392.5,437.5C 1388.02,436.674 1383.35,436.174 1378.5,436C 1381.17,435.333 1381.17,434.667 1378.5,434C 1380.5,433.667 1382.5,433.333 1384.5,433C 1380.85,432.501 1377.18,432.335 1373.5,432.5C 1360.5,432.5 1347.5,432.5 1334.5,432.5 Z"/></g><g transform="matrix(1, 0, 0, 1, -389.475494, 284.958832)"><path style="opacity:1" fill="#1d57f7" d="M 1334.5,432.5 C 1347.5,432.5 1360.5,432.5 1373.5,432.5C 1366.84,433.349 1360,434.016 1353,434.5C 1349.08,433.22 1345.24,433.386 1341.5,435C 1344.17,436.061 1346.83,436.894 1349.5,437.5C 1345.3,437.183 1341.3,437.517 1337.5,438.5C 1329.17,446.167 1321.17,454.167 1313.5,462.5C 1313.17,462.5 1312.83,462.5 1312.5,462.5C 1310.52,461.953 1308.85,460.953 1307.5,459.5C 1316.17,450.167 1325.17,441.167 1334.5,432.5 Z"/></g><g transform="matrix(1, 0, 0, 1, -389.475494, 284.958832)"><path style="opacity:1" fill="#0c64f7" d="M 1373.5,432.5 C 1377.18,432.335 1380.85,432.501 1384.5,433C 1382.5,433.333 1380.5,433.667 1378.5,434C 1381.17,434.667 1381.17,435.333 1378.5,436C 1383.35,436.174 1388.02,436.674 1392.5,437.5C 1378.17,437.5 1363.83,437.5 1349.5,437.5C 1346.83,436.894 1344.17,436.061 1341.5,435C 1345.24,433.386 1349.08,433.22 1353,434.5C 1360,434.016 1366.84,433.349 1373.5,432.5 Z"/></g><g transform="matrix(1, 0, 0, 1, -389.475494, 284.958832)"><path style="opacity:1" fill="#f0284b" d="M 690.5,411.5 C 690.334,419.174 690.5,426.841 691,434.5C 691.333,432.5 691.667,430.5 692,428.5C 694.064,432.864 695.064,437.53 695,442.5C 695.17,432.991 695.67,423.658 696.5,414.5C 696.5,434.833 696.5,455.167 696.5,475.5C 694.958,477.953 692.958,478.62 690.5,477.5C 689.167,455.5 689.167,433.5 690.5,411.5 Z"/></g><g transform="matrix(1, 0, 0, 1, -389.475494, 284.958832)"><path style="opacity:1" fill="#f9f2f9" d="M 909.5,438.5 C 911.795,441.297 914.295,443.964 917,446.5C 917.5,452.825 917.666,459.158 917.5,465.5C 917.5,489.5 917.5,513.5 917.5,537.5C 917.334,546.839 917.5,556.173 918,565.5C 919.371,567.041 920.871,568.375 922.5,569.5C 922.5,569.833 922.5,570.167 922.5,570.5C 921.542,570.953 920.708,571.619 920,572.5C 918.814,570.323 916.981,569.323 914.5,569.5C 912.702,528.946 911.868,488.279 912,447.5C 911.355,446.354 910.522,445.354 909.5,444.5C 909.709,443.914 910.043,443.414 910.5,443C 906.572,441.675 902.572,441.342 898.5,442C 897.4,485.332 897.233,528.832 898,572.5C 898.637,574.303 899.803,575.636 901.5,576.5C 900.23,577.288 899.23,578.288 898.5,579.5C 896.5,577.833 894.5,576.167 892.5,574.5C 892.5,561.167 892.5,547.833 892.5,534.5C 892.5,514.167 892.5,493.833 892.5,473.5C 892.5,461.833 892.5,450.167 892.5,438.5C 898.167,438.5 903.833,438.5 909.5,438.5 Z"/></g><g transform="matrix(1, 0, 0, 1, -389.475494, 284.958832)"><path style="opacity:1" fill="#c83697" d="M 912.5,432.5 C 911.127,432.343 909.793,432.51 908.5,433C 908.69,434.828 909.023,436.662 909.5,438.5C 903.833,438.5 898.167,438.5 892.5,438.5C 892.5,450.167 892.5,461.833 892.5,473.5C 890.583,472.884 889.416,471.55 889,469.5C 886.801,482.302 885.967,495.302 886.5,508.5C 886.5,531.167 886.5,553.833 886.5,576.5C 885.335,529.002 885.168,481.335 886,433.5C 886.5,433 887,432.5 887.5,432C 896.01,431.177 904.344,431.343 912.5,432.5 Z"/></g><g transform="matrix(1, 0, 0, 1, -389.475494, 284.958832)"><path style="opacity:1" fill="#f54819" d="M 255.5,432.5 C 256.239,432.369 256.906,432.536 257.5,433C 260.965,437.467 264.798,441.633 269,445.5C 269.816,454.412 269.65,463.245 268.5,472C 241.835,472.5 215.169,472.667 188.5,472.5C 188.389,471.883 188.056,471.383 187.5,471C 189.291,470.585 190.624,469.585 191.5,468C 177.994,467.831 164.66,467.331 151.5,466.5C 188.833,466.5 226.167,466.5 263.5,466.5C 263.823,460.31 263.49,454.31 262.5,448.5C 259.247,443.559 254.914,440.225 249.5,438.5C 231.671,437.668 213.671,437.168 195.5,437C 197.833,436.667 200.167,436.333 202.5,436C 199.167,435.667 195.833,435.333 192.5,435C 194.301,434.683 194.634,434.016 193.5,433C 214.164,432.5 234.831,432.333 255.5,432.5 Z"/></g><g transform="matrix(1, 0, 0, 1, -389.475494, 284.958832)"><path style="opacity:1" fill="#f1343b" d="M 406.5,432.5 C 422.799,448.298 438.965,464.298 455,480.5C 455.5,508.498 455.667,536.498 455.5,564.5C 456.363,566.421 457.029,568.421 457.5,570.5C 454.315,570.98 451.481,570.314 449,568.5C 448.667,540.167 448.333,511.833 448,483.5C 433.083,468.918 418.583,454.085 404.5,439C 368.502,438.5 332.502,438.333 296.5,438.5C 331.669,437.833 367.002,437.167 402.5,436.5C 403.549,434.784 404.882,433.451 406.5,432.5 Z"/></g><g transform="matrix(1, 0, 0, 1, -389.475494, 284.958832)"><path style="opacity:1" fill="#b234a1" d="M 912.5,432.5 C 916.464,435.963 920.298,439.63 924,443.5C 924.5,483.165 924.667,522.832 924.5,562.5C 923.504,547.342 923.17,532.009 923.5,516.5C 923.853,499.801 923.353,483.134 922,466.5C 921.667,465.833 921.333,465.167 921,464.5C 920.333,465.833 919.667,467.167 919,468.5C 918.768,467.263 918.268,466.263 917.5,465.5C 917.666,459.158 917.5,452.825 917,446.5C 914.295,443.964 911.795,441.297 909.5,438.5C 909.023,436.662 908.69,434.828 908.5,433C 909.793,432.51 911.127,432.343 912.5,432.5 Z"/></g><g transform="matrix(1, 0, 0, 1, -389.475494, 284.958832)"><path style="opacity:1" fill="#1785f7" d="M 1417.5,432.5 C 1419.8,434.294 1421.96,436.294 1424,438.5C 1424.67,445.5 1424.67,452.5 1424,459.5C 1419.89,463.613 1415.72,467.779 1411.5,472C 1403.17,472.5 1394.84,472.666 1386.5,472.5C 1388.63,471.686 1390.96,471.186 1393.5,471C 1393.83,470.667 1394.17,470.333 1394.5,470C 1392.96,469.71 1391.62,469.044 1390.5,468C 1393.04,467.814 1395.37,467.314 1397.5,466.5C 1401.18,466.665 1404.85,466.499 1408.5,466C 1411.33,463.167 1414.17,460.333 1417,457.5C 1417.67,451.833 1417.67,446.167 1417,440.5C 1416.5,440 1416,439.5 1415.5,439C 1389.5,438.5 1363.5,438.333 1337.5,438.5C 1341.3,437.517 1345.3,437.183 1349.5,437.5C 1363.83,437.5 1378.17,437.5 1392.5,437.5C 1397.83,437.5 1403.17,437.5 1408.5,437.5C 1408.5,436.5 1408.5,435.5 1408.5,434.5C 1411.78,434.58 1414.78,433.913 1417.5,432.5 Z"/></g><g transform="matrix(1, 0, 0, 1, -389.475494, 284.958832)"><path style="opacity:1" fill="#f6af93" d="M 262.5,448.5 C 263.49,454.31 263.823,460.31 263.5,466.5C 226.167,466.5 188.833,466.5 151.5,466.5C 151.167,466.5 150.833,466.5 150.5,466.5C 187.663,465.502 224.996,465.168 262.5,465.5C 262.5,459.833 262.5,454.167 262.5,448.5 Z"/></g><g transform="matrix(1, 0, 0, 1, -389.475494, 284.958832)"><path style="opacity:1" fill="#5030e6" d="M 1269.5,435.5 C 1269.25,438.47 1267.59,439.803 1264.5,439.5C 1264.65,438.448 1264.48,437.448 1264,436.5C 1233.07,437.163 1202.24,437.83 1171.5,438.5C 1171.33,444.509 1171.5,450.509 1172,456.5C 1175.02,459.349 1177.85,462.349 1180.5,465.5C 1206.49,466.333 1232.49,466.833 1258.5,467C 1259.71,468.039 1260.71,469.206 1261.5,470.5C 1261.5,471.5 1261.5,472.5 1261.5,473.5C 1259.83,473.5 1258.17,473.5 1256.5,473.5C 1230.24,472.676 1203.91,472.176 1177.5,472C 1173.33,467.833 1169.17,463.667 1165,459.5C 1164.33,450.833 1164.33,442.167 1165,433.5C 1165.5,433 1166,432.5 1166.5,432C 1199.83,431.333 1233.17,431.333 1266.5,432C 1267.71,433.039 1268.71,434.206 1269.5,435.5 Z"/></g><g transform="matrix(1, 0, 0, 1, -389.475494, 284.958832)"><path style="opacity:1" fill="#5c46e9" d="M 1264.5,439.5 C 1233.57,438.508 1202.57,438.175 1171.5,438.5C 1202.24,437.83 1233.07,437.163 1264,436.5C 1264.48,437.448 1264.65,438.448 1264.5,439.5 Z"/></g><g transform="matrix(1, 0, 0, 1, -389.475494, 284.958832)"><path style="opacity:1" fill="#f8a61e" d="M 798.5,450.5 C 803.068,450.083 804.568,452.083 803,456.5C 795,464.5 787,472.5 779,480.5C 778.667,499.5 778.333,518.5 778,537.5C 776,540.167 774,540.167 772,537.5C 771.333,517.5 771.333,497.5 772,477.5C 781.036,468.632 789.869,459.632 798.5,450.5 Z"/></g><g transform="matrix(1, 0, 0, 1, -389.475494, 284.958832)"><path style="opacity:1" fill="#f65a13" d="M 150.5,466.5 C 150.833,466.5 151.167,466.5 151.5,466.5C 164.66,467.331 177.994,467.831 191.5,468C 190.624,469.585 189.291,470.585 187.5,471C 188.056,471.383 188.389,471.883 188.5,472.5C 176.482,472.168 164.482,472.501 152.5,473.5C 151.52,474.981 150.353,476.315 149,477.5C 148.333,485.833 148.333,494.167 149,502.5C 150.167,503.667 151.333,504.833 152.5,506C 165.829,506.5 179.163,506.667 192.5,506.5C 194.292,507.309 196.292,507.809 198.5,508C 197.833,508.333 197.167,508.667 196.5,509C 197.833,509.667 197.833,510.333 196.5,511C 190.652,511.173 184.985,511.673 179.5,512.5C 169.833,512.5 160.167,512.5 150.5,512.5C 147.87,510.372 145.37,508.039 143,505.5C 142.333,494.833 142.333,484.167 143,473.5C 145.37,470.961 147.87,468.628 150.5,466.5 Z"/></g><g transform="matrix(1, 0, 0, 1, -389.475494, 284.958832)"><path style="opacity:1" fill="#ef2155" d="M 696.5,475.5 C 708.167,486.5 719.5,497.833 730.5,509.5C 730.666,519.506 730.5,529.506 730,539.5C 729.667,530.167 729.333,520.833 729,511.5C 727.982,509.436 726.649,509.102 725,510.5C 722.819,508.644 720.985,506.477 719.5,504C 717.831,502.331 715.831,501.498 713.5,501.5C 705.083,494.086 697.416,486.086 690.5,477.5C 692.958,478.62 694.958,477.953 696.5,475.5 Z"/></g><g transform="matrix(1, 0, 0, 1, -389.475494, 284.958832)"><path style="opacity:1" fill="#dd227e" d="M 843.5,411.5 C 844.663,433.663 844.83,455.996 844,478.5C 833,489.5 822,500.5 811,511.5C 810.667,521.5 810.333,531.5 810,541.5C 808.961,542.71 807.794,543.71 806.5,544.5C 803.366,543.378 800.699,543.378 798.5,544.5C 799.793,542.704 801.293,541.037 803,539.5C 803.333,529.167 803.667,518.833 804,508.5C 815,497.5 826,486.5 837,475.5C 837.5,455.169 837.667,434.836 837.5,414.5C 838.33,425.326 838.83,436.326 839,447.5C 839.667,444.167 840.333,440.833 841,437.5C 841.667,438.167 842.333,438.833 843,439.5C 843.5,430.173 843.666,420.839 843.5,411.5 Z"/></g><g transform="matrix(1, 0, 0, 1, -389.475494, 284.958832)"><path style="opacity:1" fill="#faa51a" d="M 732.5,450.5 C 733.552,450.351 734.552,450.517 735.5,451C 744.333,459.833 753.167,468.667 762,477.5C 762.667,497.5 762.667,517.5 762,537.5C 760,540.167 758,540.167 756,537.5C 755.667,518.167 755.333,498.833 755,479.5C 747.054,471.554 739.054,463.554 731,455.5C 730.36,453.457 730.86,451.79 732.5,450.5 Z"/></g><g transform="matrix(1, 0, 0, 1, -389.475494, 284.958832)"><path style="opacity:1" fill="#214ef7" d="M 1307.5,459.5 C 1308.85,460.953 1310.52,461.953 1312.5,462.5C 1312.67,476.837 1312.5,491.171 1312,505.5C 1310.25,504.701 1308.92,505.368 1308,507.5C 1307.5,491.503 1307.33,475.503 1307.5,459.5 Z"/></g><g transform="matrix(1, 0, 0, 1, -389.475494, 284.958832)"><path style="opacity:1" fill="#f1253e" d="M 572.5,460.5 C 571.313,461.534 570.48,462.867 570,464.5C 569.252,462.249 567.752,460.916 565.5,460.5C 561.259,453.69 557.259,446.69 553.5,439.5C 548.198,438.337 542.864,438.171 537.5,439C 512.288,481.922 487.454,525.089 463,568.5C 461.556,570.155 459.722,570.822 457.5,570.5C 457.029,568.421 456.363,566.421 455.5,564.5C 456.496,564.586 457.329,564.252 458,563.5C 483.167,519.667 508.333,475.833 533.5,432C 541.167,431.333 548.833,431.333 556.5,432C 562.225,441.285 567.559,450.785 572.5,460.5 Z"/></g><g transform="matrix(1, 0, 0, 1, -389.475494, 284.958832)"><path style="opacity:1" fill="#ac1493" d="M 892.5,473.5 C 892.5,493.833 892.5,514.167 892.5,534.5C 891.764,522.045 890.597,509.712 889,497.5C 888.667,503.5 888.333,509.5 888,515.5C 887.814,512.964 887.314,510.631 886.5,508.5C 885.967,495.302 886.801,482.302 889,469.5C 889.416,471.55 890.583,472.884 892.5,473.5 Z"/></g><g transform="matrix(1, 0, 0, 1, -389.475494, 284.958832)"><path style="opacity:1" fill="#4440ef" d="M 1261.5,470.5 C 1263.46,471.96 1265.3,473.627 1267,475.5C 1267.67,482.5 1267.67,489.5 1267,496.5C 1262.07,502.016 1256.9,507.349 1251.5,512.5C 1250.19,511.198 1250.19,509.865 1251.5,508.5C 1250.64,507.575 1249.64,506.908 1248.5,506.5C 1252.13,502.369 1255.96,498.369 1260,494.5C 1260.67,488.833 1260.67,483.167 1260,477.5C 1258.62,476.295 1257.46,474.962 1256.5,473.5C 1258.17,473.5 1259.83,473.5 1261.5,473.5C 1261.5,472.5 1261.5,471.5 1261.5,470.5 Z"/></g><g transform="matrix(1, 0, 0, 1, -389.475494, 284.958832)"><path style="opacity:1" fill="#f8691e" d="M 255.5,432.5 C 234.831,432.333 214.164,432.5 193.5,433C 194.634,434.016 194.301,434.683 192.5,435C 195.833,435.333 199.167,435.667 202.5,436C 200.167,436.333 197.833,436.667 195.5,437C 213.671,437.168 231.671,437.668 249.5,438.5C 214.498,438.333 179.498,438.5 144.5,439C 136,447.5 127.5,456 119,464.5C 118.333,503.167 118.333,541.833 119,580.5C 126.833,588.333 134.667,596.167 142.5,604C 153.161,604.5 163.828,604.667 174.5,604.5C 177.058,606.524 180.058,607.691 183.5,608C 181.167,608.333 178.833,608.667 176.5,609C 178.058,609.21 179.391,609.71 180.5,610.5C 166.496,610.667 152.496,610.5 138.5,610C 129.303,601.137 120.469,591.97 112,582.5C 111.333,542.5 111.333,502.5 112,462.5C 122.167,452.333 132.333,442.167 142.5,432C 180.336,431.169 218.002,431.336 255.5,432.5 Z"/></g><g transform="matrix(1, 0, 0, 1, -389.475494, 284.958832)"><path style="opacity:1" fill="#f12b33" d="M 396.5,466.5 C 406.167,475.5 415.5,484.833 424.5,494.5C 424.823,517.908 424.489,541.242 423.5,564.5C 419.425,569.078 415.092,573.578 410.5,578C 384.5,578.667 358.5,578.667 332.5,578C 331.673,559.573 331.173,541.073 331,522.5C 327.984,519.651 325.15,516.651 322.5,513.5C 319.572,512.516 316.572,512.183 313.5,512.5C 312.737,511.732 311.737,511.232 310.5,511C 311.973,510.29 312.64,509.124 312.5,507.5C 314.415,507.784 316.081,507.451 317.5,506.5C 320.187,506.336 322.854,506.503 325.5,507C 329.333,510.833 333.167,514.667 337,518.5C 337.5,536.497 337.667,554.497 337.5,572.5C 360.502,572.667 383.502,572.5 406.5,572C 410.333,568.167 414.167,564.333 418,560.5C 418.667,539.167 418.667,517.833 418,496.5C 410.167,488.667 402.333,480.833 394.5,473C 379.837,472.5 365.17,472.333 350.5,472.5C 353.083,471.776 355.749,470.943 358.5,470C 353.709,468.763 349.042,468.097 344.5,468C 358.833,467.333 373.167,467.333 387.5,468C 385.369,468.543 383.369,469.376 381.5,470.5C 384.239,471.767 386.906,471.601 389.5,470C 389.043,469.586 388.709,469.086 388.5,468.5C 391.306,467.832 393.972,467.166 396.5,466.5 Z"/></g><g transform="matrix(1, 0, 0, 1, -389.475494, 284.958832)"><path style="opacity:1" fill="#582dde" d="M 1108.5,466.5 C 1129.32,501.472 1149.66,536.805 1169.5,572.5C 1165.11,572.457 1164.77,572.957 1168.5,574C 1166.57,574.422 1165.57,575.589 1165.5,577.5C 1143.47,540.113 1121.8,502.447 1100.5,464.5C 1100.47,463.503 1100.97,462.836 1102,462.5C 1103.77,463.34 1105.1,464.673 1106,466.5C 1106.77,465.402 1107.6,465.402 1108.5,466.5 Z"/></g><g transform="matrix(1, 0, 0, 1, -389.475494, 284.958832)"><path style="opacity:1" fill="#3b4df4" d="M 1269.5,435.5 C 1278.33,444.467 1287.16,453.467 1296,462.5C 1296.67,476.833 1296.67,491.167 1296,505.5C 1292.12,507.757 1290.62,511.09 1291.5,515.5C 1290.69,517.631 1290.19,519.964 1290,522.5C 1288.99,521.663 1287.82,521.33 1286.5,521.5C 1286.77,523.099 1286.43,524.432 1285.5,525.5C 1284.35,519.681 1284.18,513.681 1285,507.5C 1286.33,506.167 1287.67,504.833 1289,503.5C 1289.67,490.5 1289.67,477.5 1289,464.5C 1280.63,456.298 1272.46,447.965 1264.5,439.5C 1267.59,439.803 1269.25,438.47 1269.5,435.5 Z"/></g><g transform="matrix(1, 0, 0, 1, -389.475494, 284.958832)"><path style="opacity:1" fill="#ed1d49" d="M 565.5,460.5 C 567.752,460.916 569.252,462.249 570,464.5C 570.48,462.867 571.313,461.534 572.5,460.5C 584.003,479.5 595.003,498.834 605.5,518.5C 604.064,520.979 602.064,521.645 599.5,520.5C 587.739,500.74 576.405,480.74 565.5,460.5 Z"/></g><g transform="matrix(1, 0, 0, 1, -389.475494, 284.958832)"><path style="opacity:1" fill="#166af8" d="M 1397.5,466.5 C 1395.37,467.314 1393.04,467.814 1390.5,468C 1391.62,469.044 1392.96,469.71 1394.5,470C 1394.17,470.333 1393.83,470.667 1393.5,471C 1390.96,471.186 1388.63,471.686 1386.5,472.5C 1373.5,472.333 1360.5,472.5 1347.5,473C 1345.98,474.685 1344.32,476.185 1342.5,477.5C 1341.17,483.167 1341.17,488.833 1342.5,494.5C 1346.5,498.004 1350.17,501.837 1353.5,506C 1368.83,506.5 1384.16,506.667 1399.5,506.5C 1396.69,507.319 1393.69,507.819 1390.5,508C 1393.28,509.158 1395.28,510.658 1396.5,512.5C 1381.16,512.667 1365.83,512.5 1350.5,512C 1345.67,507.167 1340.83,502.333 1336,497.5C 1335.33,489.833 1335.33,482.167 1336,474.5C 1338.54,471.628 1341.37,469.128 1344.5,467C 1362.16,466.5 1379.83,466.333 1397.5,466.5 Z"/></g><g transform="matrix(1, 0, 0, 1, -389.475494, 284.958832)"><path style="opacity:1" fill="#f4441a" d="M 192.5,506.5 C 209.17,506.333 225.837,506.5 242.5,507C 243.642,513.084 243.809,519.251 243,525.5C 238.584,530.086 234.084,534.419 229.5,538.5C 203.831,538.667 178.165,538.5 152.5,538C 173.5,537.667 194.5,537.333 215.5,537C 213.998,536.417 212.665,535.584 211.5,534.5C 216.651,533.833 221.651,533.166 226.5,532.5C 230.167,529.5 233.5,526.167 236.5,522.5C 237.479,519.375 237.813,516.042 237.5,512.5C 218.167,512.5 198.833,512.5 179.5,512.5C 184.985,511.673 190.652,511.173 196.5,511C 197.833,510.333 197.833,509.667 196.5,509C 197.167,508.667 197.833,508.333 198.5,508C 196.292,507.809 194.292,507.309 192.5,506.5 Z"/></g><g transform="matrix(1, 0, 0, 1, -389.475494, 284.958832)"><path style="opacity:1" fill="#9310a3" d="M 923.5,516.5 C 922.732,517.263 922.232,518.263 922,519.5C 921.667,518.5 921.333,517.5 921,516.5C 920.164,523.696 918.997,530.696 917.5,537.5C 917.5,513.5 917.5,489.5 917.5,465.5C 918.268,466.263 918.768,467.263 919,468.5C 919.667,467.167 920.333,465.833 921,464.5C 921.333,465.167 921.667,465.833 922,466.5C 923.353,483.134 923.853,499.801 923.5,516.5 Z"/></g><g transform="matrix(1, 0, 0, 1, -389.475494, 284.958832)"><path style="opacity:1" fill="#f9cdbb" d="M 150.5,512.5 C 160.167,512.5 169.833,512.5 179.5,512.5C 198.833,512.5 218.167,512.5 237.5,512.5C 237.813,516.042 237.479,519.375 236.5,522.5C 236.5,519.5 236.5,516.5 236.5,513.5C 207.662,513.831 178.995,513.498 150.5,512.5 Z"/></g><g transform="matrix(1, 0, 0, 1, -389.475494, 284.958832)"><path style="opacity:1" fill="#422ae8" d="M 1248.5,506.5 C 1249.64,506.908 1250.64,507.575 1251.5,508.5C 1250.19,509.865 1250.19,511.198 1251.5,512.5C 1231.82,512.167 1212.16,512.5 1192.5,513.5C 1189.88,515.622 1187.38,517.955 1185,520.5C 1184.19,524.689 1184.35,528.689 1185.5,532.5C 1196.66,533.331 1207.99,533.831 1219.5,534C 1213.9,536.513 1208.06,537.013 1202,535.5C 1199.7,535.494 1197.53,535.994 1195.5,537C 1210.5,537.333 1225.5,537.667 1240.5,538C 1220.5,538.5 1200.5,538.667 1180.5,538.5C 1179.88,538.389 1179.38,538.056 1179,537.5C 1178.33,530.833 1178.33,524.167 1179,517.5C 1182.5,514 1186,510.5 1189.5,507C 1209.16,506.5 1228.83,506.333 1248.5,506.5 Z"/></g><g transform="matrix(1, 0, 0, 1, -389.475494, 284.958832)"><path style="opacity:1" fill="#6a23cd" d="M 1096.5,508.5 C 1095.5,508.5 1094.5,508.5 1093.5,508.5C 1093.05,502.342 1091.72,502.008 1089.5,507.5C 1085.44,501.734 1081.61,495.734 1078,489.5C 1053.79,529.419 1029.96,569.586 1006.5,610C 990.837,610.5 975.17,610.667 959.5,610.5C 960.263,609.732 961.263,609.232 962.5,609C 961.833,608 961.167,607 960.5,606C 962.708,605.809 964.708,605.309 966.5,604.5C 978.518,604.832 990.518,604.499 1002.5,603.5C 1026.71,562.251 1051.04,521.084 1075.5,480C 1076.83,479.333 1078.17,479.333 1079.5,480C 1085.56,489.28 1091.22,498.78 1096.5,508.5 Z"/></g><g transform="matrix(1, 0, 0, 1, -389.475494, 284.958832)"><path style="opacity:1" fill="#ec2145" d="M 590.5,555.5 C 589.739,556.391 588.739,557.058 587.5,557.5C 586.378,556.37 585.044,555.703 583.5,555.5C 570.931,533.363 558.097,511.363 545,489.5C 523.959,524.417 502.792,559.25 481.5,594C 468.167,594.333 454.833,594.667 441.5,595C 439.963,596.707 438.296,598.207 436.5,599.5C 436.12,596.913 434.953,596.246 433,597.5C 432.035,597.07 431.535,596.404 431.5,595.5C 433.336,592.832 435.669,590.666 438.5,589C 451.742,588.824 464.908,588.324 478,587.5C 499.626,551.75 521.126,515.916 542.5,480C 544.441,479.257 546.274,479.424 548,480.5C 562.423,505.406 576.589,530.406 590.5,555.5 Z"/></g><g transform="matrix(1, 0, 0, 1, -389.475494, 284.958832)"><path style="opacity:1" fill="#eb2c6b" d="M 713.5,501.5 C 715.831,501.498 717.831,502.331 719.5,504C 720.985,506.477 722.819,508.644 725,510.5C 726.649,509.102 727.982,509.436 729,511.5C 729.333,520.833 729.667,530.167 730,539.5C 730.5,529.506 730.666,519.506 730.5,509.5C 731.33,519.325 731.83,529.325 732,539.5C 733.848,542.011 735.681,544.511 737.5,547C 736.362,549.045 734.695,549.712 732.5,549C 730.093,546.715 727.593,544.549 725,542.5C 724.667,532.5 724.333,522.5 724,512.5C 720.324,508.991 716.824,505.324 713.5,501.5 Z"/></g><g transform="matrix(1, 0, 0, 1, -389.475494, 284.958832)"><path style="opacity:1" fill="#f5b5bc" d="M 424.5,494.5 C 425.167,505.995 425.5,517.662 425.5,529.5C 425.499,541.52 424.832,553.186 423.5,564.5C 424.489,541.242 424.823,517.908 424.5,494.5 Z"/></g><g transform="matrix(1, 0, 0, 1, -389.475494, 284.958832)"><path style="opacity:1" fill="#771fc3" d="M 1108.5,466.5 C 1107.6,465.402 1106.77,465.402 1106,466.5C 1105.1,464.673 1103.77,463.34 1102,462.5C 1100.97,462.836 1100.47,463.503 1100.5,464.5C 1095.65,455.981 1090.65,447.481 1085.5,439C 1080.14,438.171 1074.8,438.337 1069.5,439.5C 1043.21,485.912 1016.55,532.079 989.5,578C 969.833,578.667 950.167,578.667 930.5,578C 927.715,575.564 925.048,573.064 922.5,570.5C 922.5,570.167 922.5,569.833 922.5,569.5C 923.473,567.851 924.473,566.184 925.5,564.5C 928.297,566.795 930.964,569.295 933.5,572C 951.176,572.833 968.843,572.666 986.5,571.5C 1013.04,524.918 1039.71,478.418 1066.5,432C 1073.83,431.333 1081.17,431.333 1088.5,432C 1096.07,442.982 1102.74,454.482 1108.5,466.5 Z"/></g><g transform="matrix(1, 0, 0, 1, -389.475494, 284.958832)"><path style="opacity:1" fill="#3369f5" d="M 1307.5,459.5 C 1307.33,475.503 1307.5,491.503 1308,507.5C 1308.92,505.368 1310.25,504.701 1312,505.5C 1312.5,491.171 1312.67,476.837 1312.5,462.5C 1312.83,462.5 1313.17,462.5 1313.5,462.5C 1313.33,477.17 1313.5,491.837 1314,506.5C 1322.76,515.089 1331.26,523.755 1339.5,532.5C 1351.99,533.331 1364.66,533.831 1377.5,534C 1377.05,535.612 1375.71,536.612 1373.5,537C 1375.5,537.333 1377.5,537.667 1379.5,538C 1365.17,538.5 1350.84,538.667 1336.5,538.5C 1326.53,529.036 1316.7,519.369 1307,509.5C 1306.17,492.662 1306.34,475.995 1307.5,459.5 Z"/></g><g transform="matrix(1, 0, 0, 1, -389.475494, 284.958832)"><path style="opacity:1" fill="#f23a2a" d="M 317.5,506.5 C 316.081,507.451 314.415,507.784 312.5,507.5C 312.64,509.124 311.973,510.29 310.5,511C 311.737,511.232 312.737,511.732 313.5,512.5C 310.833,512.5 308.167,512.5 305.5,512.5C 305.667,539.169 305.5,565.835 305,592.5C 304.5,593 304,593.5 303.5,594C 294.833,594.667 286.167,594.667 277.5,594C 272.589,589.594 268.255,584.76 264.5,579.5C 265.5,579.5 266.5,579.5 267.5,579.5C 267.649,578.448 267.483,577.448 267,576.5C 265.482,575.837 264.315,574.837 263.5,573.5C 264.873,573.343 266.207,573.51 267.5,574C 272.035,578.703 276.702,583.203 281.5,587.5C 287.31,588.49 293.31,588.823 299.5,588.5C 299.5,561.833 299.5,535.167 299.5,508.5C 299.611,507.883 299.944,507.383 300.5,507C 306.157,506.501 311.824,506.334 317.5,506.5 Z"/></g><g transform="matrix(1, 0, 0, 1, -389.475494, 284.958832)"><path style="opacity:1" fill="#f39c93" d="M 299.5,508.5 C 299.5,535.167 299.5,561.833 299.5,588.5C 293.31,588.823 287.31,588.49 281.5,587.5C 287.167,587.5 292.833,587.5 298.5,587.5C 298.169,560.995 298.502,534.661 299.5,508.5 Z"/></g><g transform="matrix(1, 0, 0, 1, -389.475494, 284.958832)"><path style="opacity:1" fill="#2255f8" d="M 1291.5,515.5 C 1291.34,518.187 1291.5,520.854 1292,523.5C 1296.04,527.369 1299.87,531.369 1303.5,535.5C 1303.5,547.5 1303.5,559.5 1303.5,571.5C 1302.64,572.688 1301.64,573.855 1300.5,575C 1301,576.158 1301.83,576.991 1303,577.5C 1303.55,576.711 1304.21,575.711 1305,574.5C 1306.49,575.253 1306.65,576.086 1305.5,577C 1313.34,577.171 1321.01,577.671 1328.5,578.5C 1316.92,578.821 1305.42,578.488 1294,577.5C 1293.46,574.333 1294.46,571.666 1297,569.5C 1297.83,558.818 1297.67,548.151 1296.5,537.5C 1292.84,533.506 1289.17,529.506 1285.5,525.5C 1286.43,524.432 1286.77,523.099 1286.5,521.5C 1287.82,521.33 1288.99,521.663 1290,522.5C 1290.19,519.964 1290.69,517.631 1291.5,515.5 Z"/></g><g transform="matrix(1, 0, 0, 1, -389.475494, 284.958832)"><path style="opacity:1" fill="#1282f7" d="M 1399.5,506.5 C 1408.08,513.574 1416.25,521.24 1424,529.5C 1424.67,546.833 1424.67,564.167 1424,581.5C 1413.86,590.636 1404.03,600.136 1394.5,610C 1382.84,610.5 1371.17,610.667 1359.5,610.5C 1360.95,608.836 1362.95,608.002 1365.5,608C 1360.86,607.17 1356.19,606.503 1351.5,606C 1354.04,605.814 1356.37,605.314 1358.5,604.5C 1369.51,604.667 1380.51,604.5 1391.5,604C 1392.38,603.292 1393.05,602.458 1393.5,601.5C 1401.46,594.036 1409.3,586.369 1417,578.5C 1417.67,563.167 1417.67,547.833 1417,532.5C 1411.18,525.713 1405.01,519.213 1398.5,513C 1397.91,512.536 1397.24,512.369 1396.5,512.5C 1395.28,510.658 1393.28,509.158 1390.5,508C 1393.69,507.819 1396.69,507.319 1399.5,506.5 Z"/></g><g transform="matrix(1, 0, 0, 1, -389.475494, 284.958832)"><path style="opacity:1" fill="#8817b1" d="M 923.5,516.5 C 923.17,532.009 923.504,547.342 924.5,562.5C 924.833,563.167 925.167,563.833 925.5,564.5C 924.473,566.184 923.473,567.851 922.5,569.5C 920.871,568.375 919.371,567.041 918,565.5C 917.5,556.173 917.334,546.839 917.5,537.5C 918.997,530.696 920.164,523.696 921,516.5C 921.333,517.5 921.667,518.5 922,519.5C 922.232,518.263 922.732,517.263 923.5,516.5 Z"/></g><g transform="matrix(1, 0, 0, 1, -389.475494, 284.958832)"><path style="opacity:1" fill="#5629dc" d="M 1096.5,508.5 C 1110.59,531.001 1123.92,554.001 1136.5,577.5C 1136.48,580.179 1135.14,581.512 1132.5,581.5C 1117.67,557.169 1103.33,532.502 1089.5,507.5C 1091.72,502.008 1093.05,502.342 1093.5,508.5C 1094.5,508.5 1095.5,508.5 1096.5,508.5 Z"/></g><g transform="matrix(1, 0, 0, 1, -389.475494, 284.958832)"><path style="opacity:1" fill="#e91857" d="M 605.5,518.5 C 611.336,527.5 616.669,536.833 621.5,546.5C 621.192,548.924 621.526,551.257 622.5,553.5C 623.881,554 624.547,555 624.5,556.5C 623.738,558.671 623.405,560.671 623.5,562.5C 615.5,548.5 607.5,534.5 599.5,520.5C 602.064,521.645 604.064,520.979 605.5,518.5 Z"/></g><g transform="matrix(1, 0, 0, 1, -389.475494, 284.958832)"><path style="opacity:1" fill="#cd047c" d="M 749.5,551.5 C 759.167,551.5 768.833,551.5 778.5,551.5C 781.247,554.538 784.58,556.538 788.5,557.5C 780.5,557.5 772.5,557.5 764.5,557.5C 764.918,556.778 765.584,556.278 766.5,556C 764.226,555.53 762.226,554.53 760.5,553C 756.644,552.823 752.977,552.323 749.5,551.5 Z"/></g><g transform="matrix(1, 0, 0, 1, -389.475494, 284.958832)"><path style="opacity:1" fill="#2d84f6" d="M 1339.5,532.5 C 1353.84,532.333 1368.17,532.5 1382.5,533C 1385.98,536.812 1389.82,540.312 1394,543.5C 1395.6,551.73 1395.94,560.063 1395,568.5C 1391.63,572.037 1388.13,575.371 1384.5,578.5C 1382.57,575.236 1383.57,573.403 1387.5,573C 1386.19,572.015 1385.19,570.848 1384.5,569.5C 1385.46,568.038 1386.62,566.705 1388,565.5C 1388.67,559.5 1388.67,553.5 1388,547.5C 1385.5,545 1383,542.5 1380.5,540C 1365.66,539.831 1350.99,539.331 1336.5,538.5C 1350.84,538.667 1365.17,538.5 1379.5,538C 1377.5,537.667 1375.5,537.333 1373.5,537C 1375.71,536.612 1377.05,535.612 1377.5,534C 1364.66,533.831 1351.99,533.331 1339.5,532.5 Z"/></g><g transform="matrix(1, 0, 0, 1, -389.475494, 284.958832)"><path style="opacity:1" fill="#f55e22" d="M 226.5,532.5 C 221.651,533.166 216.651,533.833 211.5,534.5C 212.665,535.584 213.998,536.417 215.5,537C 194.5,537.333 173.5,537.667 152.5,538C 178.165,538.5 203.831,538.667 229.5,538.5C 204.003,539.332 178.337,539.832 152.5,540C 151.333,541.167 150.167,542.333 149,543.5C 148.168,552.186 148.335,560.853 149.5,569.5C 153.717,573.209 158.717,574.542 164.5,573.5C 160.432,574.606 160.599,575.606 165,576.5C 169.359,576.363 173.692,576.03 178,575.5C 180.405,576.274 182.905,576.774 185.5,577C 185.833,577.333 186.167,577.667 186.5,578C 185.584,578.278 184.918,578.778 184.5,579.5C 172.829,579.667 161.162,579.5 149.5,579C 147.333,576.833 145.167,574.667 143,572.5C 142.333,561.833 142.333,551.167 143,540.5C 145.5,538 148,535.5 150.5,533C 175.831,532.5 201.164,532.333 226.5,532.5 Z"/></g><g transform="matrix(1, 0, 0, 1, -389.475494, 284.958832)"><path style="opacity:1" fill="#e071b2" d="M 764.5,557.5 C 772.5,557.5 780.5,557.5 788.5,557.5C 791.385,557.194 794.052,557.527 796.5,558.5C 776.833,558.5 757.167,558.5 737.5,558.5C 737.5,561.833 737.5,565.167 737.5,568.5C 736.518,565.038 736.185,561.371 736.5,557.5C 745.833,557.5 755.167,557.5 764.5,557.5 Z"/></g><g transform="matrix(1, 0, 0, 1, -389.475494, 284.958832)"><path style="opacity:1" fill="#c11287" d="M 806.5,544.5 C 805.542,545.962 804.376,547.295 803,548.5C 802.51,549.793 802.343,551.127 802.5,552.5C 802.897,559.251 802.564,563.918 801.5,566.5C 799.678,566.831 798.011,567.498 796.5,568.5C 796.5,565.167 796.5,561.833 796.5,558.5C 794.052,557.527 791.385,557.194 788.5,557.5C 784.58,556.538 781.247,554.538 778.5,551.5C 784.5,551.5 790.5,551.5 796.5,551.5C 796.338,549.473 796.505,547.473 797,545.5C 797.383,544.944 797.883,544.611 798.5,544.5C 800.699,543.378 803.366,543.378 806.5,544.5 Z"/></g><g transform="matrix(1, 0, 0, 1, -389.475494, 284.958832)"><path style="opacity:1" fill="#f9f4f8" d="M 796.5,558.5 C 796.5,561.833 796.5,565.167 796.5,568.5C 791.5,568.5 786.5,568.5 781.5,568.5C 766.833,568.5 752.167,568.5 737.5,568.5C 737.5,565.167 737.5,561.833 737.5,558.5C 757.167,558.5 776.833,558.5 796.5,558.5 Z"/></g><g transform="matrix(1, 0, 0, 1, -389.475494, 284.958832)"><path style="opacity:1" fill="#9510a2" d="M 892.5,534.5 C 892.5,547.833 892.5,561.167 892.5,574.5C 891.616,571.977 890.782,569.31 890,566.5C 887.288,570.529 886.788,574.862 888.5,579.5C 887.094,579.027 886.427,578.027 886.5,576.5C 886.5,553.833 886.5,531.167 886.5,508.5C 887.314,510.631 887.814,512.964 888,515.5C 888.333,509.5 888.667,503.5 889,497.5C 890.597,509.712 891.764,522.045 892.5,534.5 Z"/></g><g transform="matrix(1, 0, 0, 1, -389.475494, 284.958832)"><path style="opacity:1" fill="#dc0c6d" d="M 749.5,551.5 C 752.977,552.323 756.644,552.823 760.5,553C 762.226,554.53 764.226,555.53 766.5,556C 765.584,556.278 764.918,556.778 764.5,557.5C 755.167,557.5 745.833,557.5 736.5,557.5C 736.185,561.371 736.518,565.038 737.5,568.5C 740.641,569.321 743.975,569.821 747.5,570C 746.167,570.667 746.167,571.333 747.5,572C 749.491,572.374 751.158,573.207 752.5,574.5C 745.833,574.5 739.167,574.5 732.5,574.5C 731.883,574.389 731.383,574.056 731,573.5C 730.333,566.833 730.333,560.167 731,553.5C 731.5,553 732,552.5 732.5,552C 738.157,551.501 743.824,551.334 749.5,551.5 Z"/></g><g transform="matrix(1, 0, 0, 1, -389.475494, 284.958832)"><path style="opacity:1" fill="#b4cbf3" d="M 1303.5,535.5 C 1304.5,547.322 1304.83,559.322 1304.5,571.5C 1330.5,571.5 1356.5,571.5 1382.5,571.5C 1370.34,572.495 1358.01,572.829 1345.5,572.5C 1331.32,572.829 1317.32,572.496 1303.5,571.5C 1303.5,559.5 1303.5,547.5 1303.5,535.5 Z"/></g><g transform="matrix(1, 0, 0, 1, -389.475494, 284.958832)"><path style="opacity:1" fill="#c30481" d="M 737.5,568.5 C 752.167,568.5 766.833,568.5 781.5,568.5C 784.977,569.323 788.644,569.823 792.5,570C 790.377,570.815 788.377,571.815 786.5,573C 787.833,573.333 789.167,573.667 790.5,574C 777.838,574.5 765.171,574.667 752.5,574.5C 751.158,573.207 749.491,572.374 747.5,572C 746.167,571.333 746.167,570.667 747.5,570C 743.975,569.821 740.641,569.321 737.5,568.5 Z"/></g><g transform="matrix(1, 0, 0, 1, -389.475494, 284.958832)"><path style="opacity:1" fill="#0471f9" d="M 1384.5,569.5 C 1385.19,570.848 1386.19,572.015 1387.5,573C 1383.57,573.403 1382.57,575.236 1384.5,578.5C 1376.17,578.5 1367.83,578.5 1359.5,578.5C 1358.39,577.71 1357.06,577.21 1355.5,577C 1356.5,576.667 1357.5,576.333 1358.5,576C 1353.97,575.093 1349.64,573.927 1345.5,572.5C 1358.01,572.829 1370.34,572.495 1382.5,571.5C 1383.5,571.167 1384.17,570.5 1384.5,569.5 Z"/></g><g transform="matrix(1, 0, 0, 1, -389.475494, 284.958832)"><path style="opacity:1" fill="#414bef" d="M 1185.5,532.5 C 1210.84,532.333 1236.17,532.5 1261.5,533C 1265.67,537.167 1269.83,541.333 1274,545.5C 1274.67,552.833 1274.67,560.167 1274,567.5C 1270.47,571.369 1266.63,574.869 1262.5,578C 1253.51,578.5 1244.51,578.666 1235.5,578.5C 1229.43,577.815 1223.27,577.149 1217,576.5C 1215.36,577.849 1213.86,577.682 1212.5,576C 1222.24,574.246 1231.91,573.079 1241.5,572.5C 1247.51,572.666 1253.51,572.499 1259.5,572C 1261.7,569.46 1264.2,567.293 1267,565.5C 1267.67,559.5 1267.67,553.5 1267,547.5C 1264.55,545.041 1262.05,542.708 1259.5,540.5C 1233,539.833 1206.67,539.167 1180.5,538.5C 1200.5,538.667 1220.5,538.5 1240.5,538C 1225.5,537.667 1210.5,537.333 1195.5,537C 1197.53,535.994 1199.7,535.494 1202,535.5C 1208.06,537.013 1213.9,536.513 1219.5,534C 1207.99,533.831 1196.66,533.331 1185.5,532.5 Z"/></g><g transform="matrix(1, 0, 0, 1, -389.475494, 284.958832)"><path style="opacity:1" fill="#0f63f6" d="M 1303.5,571.5 C 1317.32,572.496 1331.32,572.829 1345.5,572.5C 1349.64,573.927 1353.97,575.093 1358.5,576C 1357.5,576.333 1356.5,576.667 1355.5,577C 1357.06,577.21 1358.39,577.71 1359.5,578.5C 1349.17,578.5 1338.83,578.5 1328.5,578.5C 1321.01,577.671 1313.34,577.171 1305.5,577C 1306.65,576.086 1306.49,575.253 1305,574.5C 1304.21,575.711 1303.55,576.711 1303,577.5C 1301.83,576.991 1301,576.158 1300.5,575C 1301.64,573.855 1302.64,572.688 1303.5,571.5 Z"/></g><g transform="matrix(1, 0, 0, 1, -389.475494, 284.958832)"><path style="opacity:1" fill="#e91a59" d="M 583.5,555.5 C 585.044,555.703 586.378,556.37 587.5,557.5C 588.739,557.058 589.739,556.391 590.5,555.5C 596.669,565.167 602.336,575.167 607.5,585.5C 607.664,588.187 607.497,590.854 607,593.5C 606.617,594.056 606.117,594.389 605.5,594.5C 597.929,581.697 590.596,568.697 583.5,555.5 Z"/></g><g transform="matrix(1, 0, 0, 1, -389.475494, 284.958832)"><path style="opacity:1" fill="#3633ea" d="M 1169.5,572.5 C 1193.5,572.5 1217.5,572.5 1241.5,572.5C 1231.91,573.079 1222.24,574.246 1212.5,576C 1213.86,577.682 1215.36,577.849 1217,576.5C 1223.27,577.149 1229.43,577.815 1235.5,578.5C 1211.99,578.831 1188.66,578.498 1165.5,577.5C 1165.57,575.589 1166.57,574.422 1168.5,574C 1164.77,572.957 1165.11,572.457 1169.5,572.5 Z"/></g><g transform="matrix(1, 0, 0, 1, -389.475494, 284.958832)"><path style="opacity:1" fill="#f4441d" d="M 164.5,573.5 C 197.5,573.5 230.5,573.5 263.5,573.5C 264.315,574.837 265.482,575.837 267,576.5C 267.483,577.448 267.649,578.448 267.5,579.5C 266.5,579.5 265.5,579.5 264.5,579.5C 237.833,579.5 211.167,579.5 184.5,579.5C 184.918,578.778 185.584,578.278 186.5,578C 186.167,577.667 185.833,577.333 185.5,577C 182.905,576.774 180.405,576.274 178,575.5C 173.692,576.03 169.359,576.363 165,576.5C 160.599,575.606 160.432,574.606 164.5,573.5 Z"/></g><g transform="matrix(1, 0, 0, 1, -389.475494, 284.958832)"><path style="opacity:1" fill="#bf339b" d="M 802.5,552.5 C 803.66,564.66 803.827,576.993 803,589.5C 800.493,591.155 797.659,591.989 794.5,592C 793.378,594.124 791.878,595.957 790,597.5C 790.427,600.121 791.927,602.121 794.5,603.5C 794.842,604.338 795.508,604.672 796.5,604.5C 795.08,606.709 793.413,608.709 791.5,610.5C 788.536,608.038 785.703,605.371 783,602.5C 781.86,598.611 782.693,595.278 785.5,592.5C 773.34,591.175 761.34,591.175 749.5,592.5C 748.957,592.44 748.624,592.107 748.5,591.5C 754.675,590.775 760.842,590.108 767,589.5C 768.713,588.863 768.879,587.863 767.5,586.5C 758.859,585.502 750.192,585.169 741.5,585.5C 759.659,584.503 777.992,584.17 796.5,584.5C 796.5,581.5 796.5,578.5 796.5,575.5C 774.993,575.831 753.66,575.497 732.5,574.5C 739.167,574.5 745.833,574.5 752.5,574.5C 765.171,574.667 777.838,574.5 790.5,574C 789.167,573.667 787.833,573.333 786.5,573C 788.377,571.815 790.377,570.815 792.5,570C 788.644,569.823 784.977,569.323 781.5,568.5C 786.5,568.5 791.5,568.5 796.5,568.5C 798.011,567.498 799.678,566.831 801.5,566.5C 802.564,563.918 802.897,559.251 802.5,552.5 Z"/></g><g transform="matrix(1, 0, 0, 1, -389.475494, 284.958832)"><path style="opacity:1" fill="#e41a64" d="M 621.5,546.5 C 631.559,563.238 641.225,580.238 650.5,597.5C 649.647,599.893 647.981,601.226 645.5,601.5C 638.167,588.5 630.833,575.5 623.5,562.5C 623.405,560.671 623.738,558.671 624.5,556.5C 624.547,555 623.881,554 622.5,553.5C 621.526,551.257 621.192,548.924 621.5,546.5 Z"/></g><g transform="matrix(1, 0, 0, 1, -389.475494, 284.958832)"><path style="opacity:1" fill="#f3c9de" d="M 617.5,602.5 C 626.962,603.792 636.295,603.792 645.5,602.5C 646.338,602.842 646.672,603.508 646.5,604.5C 637.161,604.666 627.827,604.5 618.5,604C 617.944,603.617 617.611,603.117 617.5,602.5 Z"/></g><g transform="matrix(1, 0, 0, 1, -389.475494, 284.958832)"><path style="opacity:1" fill="#e7c8ec" d="M 911.5,602.5 C 912.043,602.56 912.376,602.893 912.5,603.5C 900.518,604.499 888.518,604.832 876.5,604.5C 849.833,604.5 823.167,604.5 796.5,604.5C 795.508,604.672 794.842,604.338 794.5,603.5C 833.67,603.832 872.67,603.499 911.5,602.5 Z"/></g><g transform="matrix(1, 0, 0, 1, -389.475494, 284.958832)"><path style="opacity:1" fill="#c8d4f4" d="M 1393.5,601.5 C 1393.05,602.458 1392.38,603.292 1391.5,604C 1380.51,604.5 1369.51,604.667 1358.5,604.5C 1342.83,604.5 1327.17,604.5 1311.5,604.5C 1301.5,604.5 1291.5,604.5 1281.5,604.5C 1238.33,604.832 1195.33,604.499 1152.5,603.5C 1232.94,604.149 1313.27,603.482 1393.5,601.5 Z"/></g><g transform="matrix(1, 0, 0, 1, -389.475494, 284.958832)"><path style="opacity:1" fill="#f2332f" d="M 273.5,604.5 C 309.833,604.5 346.167,604.5 382.5,604.5C 374.016,605.656 365.349,606.489 356.5,607C 354.038,608.216 351.371,608.882 348.5,609C 351.036,609.186 353.369,609.686 355.5,610.5C 329.5,610.5 303.5,610.5 277.5,610.5C 273.688,609.676 269.688,609.176 265.5,609C 265.833,608.667 266.167,608.333 266.5,608C 265.692,607.692 265.025,607.192 264.5,606.5C 267.642,605.833 270.642,605.166 273.5,604.5 Z"/></g><g transform="matrix(1, 0, 0, 1, -389.475494, 284.958832)"><path style="opacity:1" fill="#e40e63" d="M 607.5,585.5 C 611.071,590.967 614.404,596.633 617.5,602.5C 617.611,603.117 617.944,603.617 618.5,604C 627.827,604.5 637.161,604.666 646.5,604.5C 646.918,605.222 647.584,605.722 648.5,606C 648.167,606.333 647.833,606.667 647.5,607C 650.025,608.719 652.692,609.886 655.5,610.5C 641.829,610.667 628.163,610.5 614.5,610C 611.362,604.888 608.362,599.721 605.5,594.5C 606.117,594.389 606.617,594.056 607,593.5C 607.497,590.854 607.664,588.187 607.5,585.5 Z"/></g><g transform="matrix(1, 0, 0, 1, -389.475494, 284.958832)"><path style="opacity:1" fill="#de076d" d="M 650.5,597.5 C 651.81,599.435 653.143,601.435 654.5,603.5C 672.154,604.5 689.821,604.833 707.5,604.5C 707.918,605.222 708.584,605.722 709.5,606C 705.549,606.96 701.716,607.127 698,606.5C 693.669,606.922 693.502,607.755 697.5,609C 693.975,609.179 690.641,609.679 687.5,610.5C 676.833,610.5 666.167,610.5 655.5,610.5C 652.692,609.886 650.025,608.719 647.5,607C 647.833,606.667 648.167,606.333 648.5,606C 647.584,605.722 646.918,605.222 646.5,604.5C 646.672,603.508 646.338,602.842 645.5,602.5C 645.5,602.167 645.5,601.833 645.5,601.5C 647.981,601.226 649.647,599.893 650.5,597.5 Z"/></g><g transform="matrix(1, 0, 0, 1, -389.475494, 284.958832)"><path style="opacity:1" fill="#f02739" d="M 431.5,595.5 C 431.535,596.404 432.035,597.07 433,597.5C 434.953,596.246 436.12,596.913 436.5,599.5C 432.702,602.796 429.036,606.296 425.5,610C 402.169,610.5 378.836,610.667 355.5,610.5C 353.369,609.686 351.036,609.186 348.5,609C 351.371,608.882 354.038,608.216 356.5,607C 365.349,606.489 374.016,605.656 382.5,604.5C 395.837,604.667 409.171,604.5 422.5,604C 425.369,600.962 428.369,598.129 431.5,595.5 Z"/></g><g transform="matrix(1, 0, 0, 1, -389.475494, 284.958832)"><path style="opacity:1" fill="#d30c7a" d="M 741.5,585.5 C 750.192,585.169 758.859,585.502 767.5,586.5C 768.879,587.863 768.713,588.863 767,589.5C 760.842,590.108 754.675,590.775 748.5,591.5C 748.624,592.107 748.957,592.44 749.5,592.5C 752.305,595.246 753.139,598.579 752,602.5C 749.5,605 747,607.5 744.5,610C 725.503,610.5 706.503,610.667 687.5,610.5C 690.641,609.679 693.975,609.179 697.5,609C 693.502,607.755 693.669,606.922 698,606.5C 701.716,607.127 705.549,606.96 709.5,606C 708.584,605.722 707.918,605.222 707.5,604.5C 718.505,604.667 729.505,604.5 740.5,604C 742.351,602.316 744.018,600.483 745.5,598.5C 743.667,596.167 741.833,593.833 740,591.5C 739.059,589.011 739.559,587.011 741.5,585.5 Z"/></g><g transform="matrix(1, 0, 0, 1, -389.475494, 284.958832)"><path style="opacity:1" fill="#343fed" d="M 1136.5,577.5 C 1141.83,586.167 1147.17,594.833 1152.5,603.5C 1195.33,604.499 1238.33,604.832 1281.5,604.5C 1272.4,606.093 1272.4,607.593 1281.5,609C 1276.98,609.175 1272.65,609.675 1268.5,610.5C 1228.5,610.667 1188.5,610.5 1148.5,610C 1142.76,600.688 1137.43,591.188 1132.5,581.5C 1135.14,581.512 1136.48,580.179 1136.5,577.5 Z"/></g><g transform="matrix(1, 0, 0, 1, -389.475494, 284.958832)"><path style="opacity:1" fill="#135cf4" d="M 1281.5,604.5 C 1291.5,604.5 1301.5,604.5 1311.5,604.5C 1314.64,605.321 1317.97,605.821 1321.5,606C 1319.33,607.836 1316.83,609.003 1314,609.5C 1312.42,609.012 1311.25,608.012 1310.5,606.5C 1309.61,607.325 1309.28,608.325 1309.5,609.5C 1306.29,609.19 1303.29,609.523 1300.5,610.5C 1289.83,610.5 1279.17,610.5 1268.5,610.5C 1272.65,609.675 1276.98,609.175 1281.5,609C 1272.4,607.593 1272.4,606.093 1281.5,604.5 Z"/></g><g transform="matrix(1, 0, 0, 1, -389.475494, 284.958832)"><path style="opacity:1" fill="#8f0e9f" d="M 796.5,604.5 C 823.167,604.5 849.833,604.5 876.5,604.5C 874.369,605.314 872.036,605.814 869.5,606C 869.833,606.333 870.167,606.667 870.5,607C 869.167,607.667 867.833,608.333 866.5,609C 862.644,609.177 858.977,609.677 855.5,610.5C 834.167,610.5 812.833,610.5 791.5,610.5C 793.413,608.709 795.08,606.709 796.5,604.5 Z"/></g><g transform="matrix(1, 0, 0, 1, -389.475494, 284.958832)"><path style="opacity:1" fill="#6c17b9" d="M 920.5,602.5 C 921.289,602.783 921.956,603.283 922.5,604C 937.163,604.5 951.83,604.667 966.5,604.5C 964.708,605.309 962.708,605.809 960.5,606C 961.167,607 961.833,608 962.5,609C 961.263,609.232 960.263,609.732 959.5,610.5C 942.833,610.5 926.167,610.5 909.5,610.5C 908.499,609.211 908.666,607.878 910,606.5C 912.47,608.487 915.303,608.987 918.5,608C 918.167,607.667 917.833,607.333 917.5,607C 918.5,606.667 919.5,606.333 920.5,606C 915.333,604.986 915.333,603.82 920.5,602.5 Z"/></g><g transform="matrix(1, 0, 0, 1, -389.475494, 284.958832)"><path style="opacity:1" fill="#f5491f" d="M 174.5,604.5 C 207.5,604.5 240.5,604.5 273.5,604.5C 270.642,605.166 267.642,605.833 264.5,606.5C 265.025,607.192 265.692,607.692 266.5,608C 266.167,608.333 265.833,608.667 265.5,609C 269.688,609.176 273.688,609.676 277.5,610.5C 245.167,610.5 212.833,610.5 180.5,610.5C 179.391,609.71 178.058,609.21 176.5,609C 178.833,608.667 181.167,608.333 183.5,608C 180.058,607.691 177.058,606.524 174.5,604.5 Z"/></g><g transform="matrix(1, 0, 0, 1, -389.475494, 284.958832)"><path style="opacity:1" fill="#7d18b1" d="M 892.5,574.5 C 894.5,576.167 896.5,577.833 898.5,579.5C 905.833,587.167 913.167,594.833 920.5,602.5C 915.333,603.82 915.333,604.986 920.5,606C 919.5,606.333 918.5,606.667 917.5,607C 917.833,607.333 918.167,607.667 918.5,608C 915.303,608.987 912.47,608.487 910,606.5C 908.666,607.878 908.499,609.211 909.5,610.5C 891.5,610.5 873.5,610.5 855.5,610.5C 858.977,609.677 862.644,609.177 866.5,609C 867.833,608.333 869.167,607.667 870.5,607C 870.167,606.667 869.833,606.333 869.5,606C 872.036,605.814 874.369,605.314 876.5,604.5C 888.518,604.832 900.518,604.499 912.5,603.5C 912.376,602.893 912.043,602.56 911.5,602.5C 904.167,594.5 896.5,586.833 888.5,579.5C 886.788,574.862 887.288,570.529 890,566.5C 890.782,569.31 891.616,571.977 892.5,574.5 Z"/></g><g transform="matrix(1, 0, 0, 1, -389.475494, 284.958832)"><path style="opacity:1" fill="#0669f5" d="M 1311.5,604.5 C 1327.17,604.5 1342.83,604.5 1358.5,604.5C 1356.37,605.314 1354.04,605.814 1351.5,606C 1356.19,606.503 1360.86,607.17 1365.5,608C 1362.95,608.002 1360.95,608.836 1359.5,610.5C 1339.83,610.5 1320.17,610.5 1300.5,610.5C 1303.29,609.523 1306.29,609.19 1309.5,609.5C 1309.28,608.325 1309.61,607.325 1310.5,606.5C 1311.25,608.012 1312.42,609.012 1314,609.5C 1316.83,609.003 1319.33,607.836 1321.5,606C 1317.97,605.821 1314.64,605.321 1311.5,604.5 Z"/></g></svg>